<svg width="18" height="18" viewBox="0 0 18 18" fill="none" xmlns="http://www.w3.org/2000/svg">
<path d="M10.5 10.5V4.50001M10.5 10.5L15.0765 13.1153C15.1449 13.1544 15.2224 13.1749 15.3012 13.1747C15.38 13.1745 15.4573 13.1536 15.5255 13.1141C15.5937 13.0746 15.6503 13.0179 15.6897 12.9497C15.7291 12.8814 15.7499 12.8041 15.75 12.7253V2.27476C15.75 2.1959 15.7293 2.11842 15.69 2.05007C15.6506 1.98173 15.594 1.92493 15.5258 1.88535C15.4576 1.84578 15.3802 1.82482 15.3013 1.82459C15.2225 1.82435 15.1449 1.84484 15.0765 1.88401L10.5 4.50001M10.5 10.5H5.25M10.5 4.50001H5.25C4.45435 4.50001 3.69129 4.81608 3.12868 5.37869C2.56607 5.9413 2.25 6.70436 2.25 7.50001C2.25 8.29566 2.56607 9.05872 3.12868 9.62133C3.69129 10.1839 4.45435 10.5 5.25 10.5M5.25 10.5L5.81775 14.475C5.87699 14.8617 6.08646 15.2095 6.40064 15.4426C6.71482 15.6758 7.10832 15.7756 7.49564 15.7202C7.88295 15.6649 8.23279 15.459 8.46911 15.1472C8.70544 14.8353 8.80917 14.4429 8.75775 14.055L8.25 10.5H5.25Z" stroke="#121212"/>
</svg>
