<svg width="218" height="203" viewBox="0 0 218 203" fill="none" xmlns="http://www.w3.org/2000/svg">
<path d="M190.515 196.528C184.014 201.292 176.871 203.072 169.088 201.866C161.305 200.661 155.028 196.803 150.258 190.293C145.488 183.783 143.701 176.636 144.896 168.851C146.092 161.067 149.941 154.792 156.443 150.028C162.945 145.264 170.087 143.484 177.87 144.69C185.654 145.895 191.93 149.753 196.7 156.263C201.471 162.773 203.258 169.92 202.062 177.705C200.866 185.489 197.017 191.764 190.515 196.528ZM115.556 94.2281C127.166 85.7205 139.561 79.4971 152.739 75.558C165.918 71.6189 179.146 69.7871 192.425 70.0627C197.224 70.1191 201.057 72.018 203.922 75.7596C206.788 79.5012 207.844 83.7871 207.091 88.6172C206.39 93.1806 204.134 96.9206 200.323 99.837C196.512 102.754 192.261 104.258 187.57 104.35C178.734 104.631 169.904 106.218 161.079 109.111C152.255 112.004 143.895 116.343 135.999 122.128C128.104 127.913 121.448 134.577 116.03 142.12C110.613 149.663 106.439 157.605 103.509 165.946C102.003 170.384 99.2582 173.944 95.2745 176.625C91.2907 179.306 87.0175 180.293 82.455 179.586C77.7789 178.725 74.0507 176.397 71.2704 172.602C68.4901 168.808 67.7939 164.611 69.1819 160.011C72.9262 147.262 78.689 135.235 86.4703 123.931C94.2517 112.626 103.947 102.725 115.556 94.2281ZM74.6687 38.4282C94.0197 24.2489 114.578 14.0683 136.344 7.88646C158.11 1.70463 180.061 -0.562657 202.196 1.0846C207.223 1.4509 211.233 3.51484 214.227 7.27639C217.222 11.0379 218.348 15.3346 217.605 20.1664C216.904 24.7298 214.648 28.4698 210.837 31.3862C207.026 34.3027 202.662 35.6522 197.744 35.4347C179.897 34.457 162.202 36.5261 144.661 41.6418C127.12 46.7576 110.604 54.9864 95.1122 66.3282C79.6207 77.67 66.8009 90.9371 56.6529 106.13C46.5049 121.322 39.1975 137.573 34.7308 154.882C33.4519 159.63 30.85 163.385 26.9253 166.147C23.0006 168.908 18.7547 169.933 14.1877 169.22C9.35676 168.472 5.59902 166.103 2.91445 162.115C0.229874 158.126 -0.529726 153.68 0.635655 148.777C5.74061 127.169 14.5195 106.92 26.9723 88.0282C39.4251 69.1364 55.3239 52.603 74.6687 38.4282Z" fill="#B5EDF7"/>
</svg>
