<svg width="240" height="32" viewBox="0 0 240 32" fill="none" xmlns="http://www.w3.org/2000/svg">
<g clip-path="url(#clip0_2_11400)">
<mask id="mask0_2_11400" style="mask-type:luminance" maskUnits="userSpaceOnUse" x="43" y="0" width="14" height="27">
<path d="M52.6442 13.2487C52.6442 19.311 48.7998 24.4754 43.4131 26.431H43.4442C50.6931 26.431 56.5731 20.5554 56.5731 13.3065C56.5731 6.05763 50.8398 0.33319 43.7153 0.186523C48.9375 2.22652 52.6398 7.30652 52.6398 13.2532" fill="white"/>
</mask>
<g mask="url(#mask0_2_11400)">
<path d="M56.5686 0.186523H43.4131V26.4354H56.5686V0.186523Z" fill="url(#paint0_linear_2_11400)"/>
</g>
<mask id="mask1_2_11400" style="mask-type:luminance" maskUnits="userSpaceOnUse" x="24" y="5" width="14" height="27">
<path d="M24.7285 18.5332C24.7285 25.6887 30.4574 31.5065 37.5818 31.6532C32.3596 29.6132 28.6574 24.5332 28.6574 18.5865C28.6574 12.6399 32.5018 7.3643 37.8841 5.4043H37.8574C30.6085 5.4043 24.7285 11.2799 24.7285 18.5332Z" fill="white"/>
</mask>
<g mask="url(#mask1_2_11400)">
<path d="M37.889 5.4043H24.7334V31.6532H37.889V5.4043Z" fill="url(#paint1_linear_2_11400)"/>
</g>
<mask id="mask2_2_11400" style="mask-type:luminance" maskUnits="userSpaceOnUse" x="24" y="0" width="28" height="14">
<path d="M24.9199 12.8489C26.9599 7.62667 32.0399 3.92444 37.9821 3.92444C43.9244 3.92444 49.2044 7.76889 51.1644 13.1556V13.1289C51.1644 5.88 45.2888 0 38.0399 0C30.791 0 25.0666 5.72889 24.9199 12.8489Z" fill="white"/>
</mask>
<g mask="url(#mask2_2_11400)">
<path d="M51.1688 0H24.9199V13.1556H51.1688V0Z" fill="url(#paint2_linear_2_11400)"/>
</g>
<mask id="mask3_2_11400" style="mask-type:luminance" maskUnits="userSpaceOnUse" x="30" y="18" width="27" height="14">
<path d="M30.1338 18.7112C30.1338 25.9601 36.0138 31.8401 43.2627 31.8401C50.5116 31.8401 56.236 26.1112 56.3827 18.9867C54.3427 24.209 49.2627 27.9156 43.316 27.9156C37.3693 27.9156 32.0938 24.0712 30.1338 18.689C30.1338 18.6979 30.1338 18.7067 30.1338 18.7156" fill="white"/>
</mask>
<g mask="url(#mask3_2_11400)">
<path d="M56.3827 18.6846H30.1338V31.8401H56.3827V18.6846Z" fill="url(#paint3_linear_2_11400)"/>
</g>
<path d="M84.3778 11.3024V31.2002H91.1111V4.72021H84.3778V11.3024ZM119.538 4.72021V31.2002H126.267V4.72021H119.538ZM18.2533 11.3024L23.6667 4.72021H14.2533L11.8933 7.96466L9.46667 11.298L7.84 13.538L6.72889 15.0713V4.72021H0V24.3335V31.2002H6.73333V25.3113L10.8089 20.3602L15.5156 31.2002H24.1867L15.4622 14.7024L18.2578 11.3024H18.2533ZM66.4267 4.72021H59.3956V11.3024H66.4267V31.2002H73.1556V11.3024H80.7867V4.72021H66.4267ZM102.031 4.72021H94.6978V11.3024H102.031V31.2002H108.764V11.3024H116.093V4.72021H102.031Z" fill="#0972BA"/>
<mask id="mask4_2_11400" style="mask-type:luminance" maskUnits="userSpaceOnUse" x="43" y="0" width="14" height="27">
<path d="M52.6442 13.2487C52.6442 19.311 48.7998 24.4754 43.4131 26.431H43.4442C50.6931 26.431 56.5731 20.5554 56.5731 13.3065C56.5731 6.05763 50.8398 0.33319 43.7153 0.186523C48.9375 2.22652 52.6398 7.30652 52.6398 13.2532" fill="white"/>
</mask>
<g mask="url(#mask4_2_11400)">
<path d="M56.5686 0.186523H43.4131V26.4354H56.5686V0.186523Z" fill="url(#paint4_linear_2_11400)"/>
</g>
<mask id="mask5_2_11400" style="mask-type:luminance" maskUnits="userSpaceOnUse" x="24" y="5" width="14" height="27">
<path d="M24.7285 18.5332C24.7285 25.6887 30.4574 31.5065 37.5818 31.6532C32.3596 29.6132 28.6574 24.5332 28.6574 18.5865C28.6574 12.6399 32.5018 7.3643 37.8841 5.4043H37.8574C30.6085 5.4043 24.7285 11.2799 24.7285 18.5332Z" fill="white"/>
</mask>
<g mask="url(#mask5_2_11400)">
<path d="M37.889 5.4043H24.7334V31.6532H37.889V5.4043Z" fill="url(#paint5_linear_2_11400)"/>
</g>
<mask id="mask6_2_11400" style="mask-type:luminance" maskUnits="userSpaceOnUse" x="24" y="0" width="28" height="14">
<path d="M24.9199 12.8489C26.9599 7.62667 32.0399 3.92444 37.9821 3.92444C43.9244 3.92444 49.2044 7.76889 51.1644 13.1556V13.1289C51.1644 5.88 45.2888 0 38.0399 0C30.791 0 25.0666 5.72889 24.9199 12.8489Z" fill="white"/>
</mask>
<g mask="url(#mask6_2_11400)">
<path d="M51.1688 0H24.9199V13.1556H51.1688V0Z" fill="url(#paint6_linear_2_11400)"/>
</g>
<mask id="mask7_2_11400" style="mask-type:luminance" maskUnits="userSpaceOnUse" x="30" y="18" width="27" height="14">
<path d="M30.1338 18.7112C30.1338 25.9601 36.0138 31.8401 43.2627 31.8401C50.5116 31.8401 56.236 26.1112 56.3827 18.9867C54.3427 24.209 49.2627 27.9156 43.316 27.9156C37.3693 27.9156 32.0938 24.0712 30.1338 18.689C30.1338 18.6979 30.1338 18.7067 30.1338 18.7156" fill="white"/>
</mask>
<g mask="url(#mask7_2_11400)">
<path d="M56.3827 18.6846H30.1338V31.8401H56.3827V18.6846Z" fill="url(#paint7_linear_2_11400)"/>
</g>
<path d="M84.3778 11.3024V31.2002H91.1111V4.72021H84.3778V11.3024ZM119.538 4.72021V31.2002H126.267V4.72021H119.538ZM18.2533 11.3024L23.6667 4.72021H14.2533L11.8933 7.96466L9.46667 11.298L7.84 13.538L6.72889 15.0713V4.72021H0V24.3335V31.2002H6.73333V25.3113L10.8089 20.3602L15.5156 31.2002H24.1867L15.4622 14.7024L18.2578 11.3024H18.2533ZM66.4267 4.72021H59.3956V11.3024H66.4267V31.2002H73.1556V11.3024H80.7867V4.72021H66.4267ZM102.031 4.72021H94.6978V11.3024H102.031V31.2002H108.764V11.3024H116.093V4.72021H102.031Z" fill="#025BA8"/>
<path d="M240.102 26.4577C240.102 24.8444 239.302 22.9644 237.044 22.9644C234.986 22.9644 233.551 24.6088 233.551 26.9644C233.551 29.3199 234.982 30.6977 237.191 30.6977C238.36 30.6977 239.173 30.4399 239.649 30.2266L239.711 30.1999L239.431 29.1199L239.346 29.1555C238.915 29.3288 238.346 29.5066 237.369 29.5066C235.929 29.5066 235.053 28.6221 234.995 27.151C235.177 27.151 240.049 27.1644 240.049 27.1644L240.097 26.4577H240.102ZM235.017 26.0488C235.151 25.1155 235.72 24.0666 236.937 24.0666C237.426 24.0666 237.822 24.2177 238.115 24.5199C238.604 25.0132 238.662 25.7466 238.666 26.0488H235.017Z" fill="#323232"/>
<path d="M175.004 24.1689C175.569 24.1689 176.066 24.28 176.493 24.5022L176.577 24.5466L176.924 23.3911L176.866 23.36C176.529 23.1777 175.835 22.96 175.004 22.96C172.666 22.96 171.035 24.5822 171.035 26.9022C171.035 29.2222 172.515 30.6933 174.72 30.6933C175.622 30.6933 176.404 30.4711 176.835 30.2666L176.893 30.24L176.635 29.0977L176.546 29.1377C176.169 29.3022 175.684 29.4755 174.964 29.4755C173.506 29.4755 172.528 28.4177 172.528 26.8444C172.528 25.5111 173.297 24.1689 175.008 24.1689H175.004Z" fill="#323232"/>
<path d="M181.978 23.1287C181.48 23.1287 181 23.2621 180.592 23.5154C180.254 23.6932 179.965 23.9821 179.738 24.3154V20.4487H178.263V30.6976H179.738V26.2487C179.738 26.0043 179.752 25.8176 179.823 25.6487C180.049 25.0176 180.654 24.3821 181.516 24.3821C182.836 24.3821 183.112 25.511 183.112 26.4576V30.6976H184.587V26.3065C184.587 23.9598 183.183 23.1287 181.978 23.1287Z" fill="#323232"/>
<path d="M217.756 21.3643L217.653 21.3954L216.311 21.8176V23.1287H215.187V24.2887H216.311V28.1598C216.311 29.0754 216.485 29.7154 216.84 30.1154C217.182 30.4887 217.707 30.6976 218.32 30.6976C218.933 30.6976 219.32 30.582 219.516 30.5154L219.573 30.4976L219.502 29.3331L219.405 29.3643C219.205 29.4265 218.996 29.4487 218.662 29.4487C218.027 29.4487 217.756 29.0531 217.756 28.1198V24.2931H219.64V23.1331H217.756V21.3687V21.3643ZM232.845 24.2887V23.1287H230.96V21.3643L230.858 21.3954L229.516 21.8176V23.1287H228.391V24.2887H229.516V28.1598C229.516 29.0754 229.689 29.7154 230.045 30.1154C230.387 30.4887 230.911 30.6976 231.525 30.6976C232.138 30.6976 232.525 30.582 232.72 30.5154L232.778 30.4976L232.707 29.3331L232.609 29.3643C232.405 29.4265 232.2 29.4487 231.867 29.4487C231.231 29.4487 230.96 29.0531 230.96 28.1198V24.2931H232.845V24.2887ZM227.187 23.1287H225.711V27.6398C225.711 27.8798 225.671 28.1065 225.6 28.2843C225.387 28.822 224.822 29.4487 223.938 29.4487C222.916 29.4487 222.4 28.6976 222.4 27.2087V23.1331H220.925V27.4487C220.925 30.3865 222.729 30.702 223.502 30.702C224.893 30.702 225.587 29.8843 225.862 29.4709C225.88 29.7376 225.929 30.5376 225.929 30.5376H227.253L227.191 28.4843V23.1376L227.187 23.1287Z" fill="#323232"/>
<path d="M213.982 23.2935H212.507V30.6979H213.982V23.2935Z" fill="#323232"/>
<path d="M191.249 20.4487H189.773V30.6976H191.249V20.4487Z" fill="#323232"/>
<path d="M204.067 26.1733C203.16 25.8266 202.756 25.5777 202.756 25.0044C202.756 24.4311 203.204 24.0933 203.876 24.0933C204.364 24.0933 204.849 24.2311 205.316 24.5022L205.4 24.5511L205.764 23.4577L205.711 23.4222C205.271 23.1333 204.591 22.96 203.902 22.96C202.409 22.96 201.324 23.8888 201.324 25.1644C201.324 26.0977 201.991 26.8133 203.307 27.2889C204.253 27.6444 204.587 27.9733 204.587 28.5466C204.587 29.1733 204.093 29.5466 203.271 29.5466C202.627 29.5466 201.951 29.28 201.56 29.0489L201.476 29L201.111 30.1422L201.164 30.1733C201.724 30.5022 202.48 30.6933 203.24 30.6933C204.924 30.6933 206.013 29.8044 206.013 28.4266C206.013 27.3688 205.409 26.6711 204.062 26.1689L204.067 26.1733Z" fill="#323232"/>
<path d="M197.004 23.1289C195.831 23.1289 195.036 23.7645 194.649 24.3689C194.636 24.1067 194.582 23.2934 194.582 23.2934H193.258L193.32 25.3334V30.6978H194.796V26.2489L194.88 25.6622C195.089 25.0178 195.698 24.3689 196.569 24.3689C197.96 24.3689 198.169 25.6711 198.169 26.4445V30.6978H199.644V26.2934C199.644 23.2845 197.444 23.1289 197.004 23.1289Z" fill="#323232"/>
<path d="M209.298 21.3643L209.196 21.3954L207.853 21.8176V23.1287H206.733V24.2887H207.853V28.1598C207.853 29.0754 208.027 29.7154 208.382 30.1154C208.725 30.4887 209.249 30.6976 209.862 30.6976C210.476 30.6976 210.862 30.582 211.053 30.5154L211.111 30.4976L211.045 29.3331L210.947 29.3643C210.742 29.4265 210.538 29.4487 210.205 29.4487C209.569 29.4487 209.298 29.0531 209.298 28.1198V24.2931H211.182V23.1331H209.298V21.3687V21.3643Z" fill="#323232"/>
<path d="M213.214 22.2977H213.232C213.769 22.2977 214.165 21.9066 214.165 21.3643C214.165 20.8221 213.778 20.4443 213.245 20.4443C212.712 20.4443 212.312 20.8399 212.312 21.3643C212.312 21.8888 212.698 22.2977 213.214 22.2977Z" fill="#323232"/>
<path d="M170.062 23.129C169.195 23.129 168.444 23.6978 168.067 24.569C168.053 24.2534 168.013 23.2934 168.013 23.2934H166.702L166.764 25.6312L166.751 30.6934H168.227V26.7512L168.271 26.1334C168.449 25.1601 169.111 24.5245 169.96 24.5245L170.467 24.5556L170.502 24.4756V23.1778L170.062 23.1245V23.129Z" fill="#323232"/>
<path d="M137.28 30.5824C137.084 30.1913 136.831 29.1513 136.524 27.8313C136.262 26.7424 135.786 26.0846 135.093 25.7913C136.248 25.3513 136.946 24.4002 136.946 23.209C136.946 22.4135 136.648 21.6935 136.124 21.2357C135.475 20.649 134.528 20.3779 133.137 20.3779C132.266 20.3779 131.306 20.4624 130.622 20.6046L130.56 20.6179V30.6979H132.022V26.329H133.168C134.324 26.3735 134.835 26.8713 135.128 28.2268C135.426 29.6135 135.64 30.3868 135.795 30.6579L135.817 30.6979H137.337L137.28 30.5824ZM133.271 25.1824H132.017V21.6579C132.168 21.6224 132.542 21.5557 133.226 21.5557C134.671 21.5557 135.466 22.1913 135.466 23.3468C135.466 24.5024 134.604 25.1824 133.271 25.1824Z" fill="#323232"/>
<path d="M148.551 26.1733C147.644 25.8266 147.24 25.5777 147.24 25.0044C147.24 24.4311 147.688 24.0933 148.36 24.0933C148.848 24.0933 149.333 24.2311 149.8 24.5022L149.884 24.5511L150.248 23.4577L150.195 23.4222C149.755 23.1333 149.075 22.96 148.386 22.96C146.893 22.96 145.808 23.8888 145.808 25.1644C145.808 26.0977 146.475 26.8133 147.791 27.2889C148.737 27.6444 149.071 27.9733 149.071 28.5466C149.071 29.1733 148.582 29.5466 147.76 29.5466C147.115 29.5466 146.435 29.28 146.048 29.0489L145.964 29L145.6 30.1422L145.653 30.1733C146.213 30.5022 146.969 30.6933 147.729 30.6933C149.413 30.6933 150.502 29.8044 150.502 28.4266C150.502 27.3688 149.897 26.6711 148.551 26.1689V26.1733Z" fill="#323232"/>
<path d="M164.903 30.4399C164.832 29.9866 164.796 29.4044 164.796 28.7155V26.0088C164.796 24.6221 164.303 22.9644 161.947 22.9644C161.063 22.9644 160.152 23.2044 159.512 23.6044L159.458 23.6355L159.809 24.6755L159.898 24.6177C160.383 24.2888 161.076 24.0932 161.756 24.0932C162.263 24.0888 162.654 24.2177 162.911 24.4755C163.183 24.7466 163.32 25.1555 163.32 25.6888V25.7599C161.623 25.7599 160.347 26.1332 159.64 26.8399C159.192 27.2844 158.965 27.8532 158.965 28.5332C158.965 29.5732 159.68 30.6932 161.258 30.6932C162.316 30.6932 163.063 30.1821 163.458 29.6755C163.48 29.8666 163.569 30.5288 163.569 30.5288H164.911L164.898 30.4399H164.903ZM161.591 29.5644C161.036 29.5644 160.445 29.2532 160.445 28.3866C160.445 28.0132 160.565 27.7021 160.809 27.4666C161.258 27.031 162.111 26.8177 163.356 26.831V28.0088L163.298 28.4044C163.116 28.9377 162.56 29.5644 161.591 29.5644Z" fill="#323232"/>
<path d="M158.062 26.4577C158.062 24.8444 157.262 22.9644 155.004 22.9644C152.946 22.9644 151.511 24.6088 151.511 26.9644C151.511 29.3199 152.942 30.6977 155.151 30.6977C156.32 30.6977 157.133 30.4399 157.609 30.2266L157.671 30.1999L157.391 29.1199L157.306 29.1555C156.875 29.3288 156.302 29.5066 155.329 29.5066C153.889 29.5066 153.013 28.6221 152.955 27.151C153.133 27.151 158.009 27.1644 158.009 27.1644L158.062 26.4577ZM152.977 26.0488C153.111 25.1155 153.68 24.0666 154.897 24.0666C155.386 24.0666 155.782 24.2177 156.075 24.5199C156.564 25.0132 156.622 25.7466 156.626 26.0488H152.977Z" fill="#323232"/>
<path d="M144.64 26.4577C144.64 24.8444 143.84 22.9644 141.582 22.9644C139.524 22.9644 138.089 24.6088 138.089 26.9644C138.089 29.3199 139.52 30.6977 141.733 30.6977C142.902 30.6977 143.716 30.4399 144.191 30.2266L144.253 30.1999L143.973 29.1199L143.889 29.1555C143.458 29.3288 142.884 29.5066 141.911 29.5066C140.471 29.5066 139.596 28.6221 139.533 27.151C139.711 27.151 144.587 27.1644 144.587 27.1644L144.64 26.4577ZM141.476 24.0666C141.964 24.0666 142.36 24.2177 142.658 24.5199C143.147 25.0132 143.204 25.7466 143.209 26.0488H139.56C139.693 25.1155 140.262 24.0666 141.48 24.0666H141.476Z" fill="#323232"/>
<path d="M144.049 10.9909C144.049 9.382 143.249 7.49756 140.991 7.49756C138.934 7.49756 137.498 9.142 137.498 11.4976C137.498 13.8531 138.925 15.2309 141.142 15.2309C142.311 15.2309 143.125 14.9731 143.6 14.7598L143.662 14.7331L143.382 13.6531L143.298 13.6887C142.867 13.862 142.298 14.0398 141.325 14.0398C139.885 14.0398 139.009 13.1553 138.947 11.6842C139.129 11.6842 144 11.702 144 11.702L144.049 10.9953V10.9909ZM138.965 10.582C139.098 9.64867 139.667 8.59978 140.885 8.59978C141.374 8.59978 141.769 8.75089 142.067 9.05311C142.551 9.54645 142.614 10.2798 142.618 10.582H138.965Z" fill="#323232"/>
<path d="M163.72 7.6665C162.547 7.6665 161.751 8.30206 161.365 8.9065C161.347 8.64428 161.298 7.83095 161.298 7.83095H159.974L160.036 9.87095V15.2354H161.511V10.7865L161.596 10.1998C161.805 9.55539 162.409 8.9065 163.285 8.9065C164.676 8.9065 164.885 10.2087 164.885 10.9821V15.2398H166.36V10.8354C166.36 7.8265 164.16 7.67095 163.72 7.67095V7.6665Z" fill="#323232"/>
<path d="M130.56 4.98682V6.25348H133.631V15.2357H135.106V6.25348H138.191V4.98682H130.564H130.56Z" fill="#323232"/>
<path d="M148.089 10.7064C147.183 10.3598 146.778 10.1109 146.778 9.53756C146.778 8.96422 147.227 8.63089 147.894 8.63089C148.383 8.63089 148.867 8.76867 149.338 9.03978L149.423 9.08867L149.787 7.99534L149.738 7.95978C149.294 7.67089 148.618 7.49756 147.929 7.49756C146.436 7.49756 145.351 8.42645 145.351 9.702C145.351 10.6353 146.018 11.3509 147.334 11.8264C148.276 12.182 148.614 12.5109 148.614 13.0842C148.614 13.7109 148.125 14.0798 147.303 14.0798C146.658 14.0798 145.978 13.8131 145.591 13.582L145.507 13.5287L145.143 14.6709L145.196 14.702C145.756 15.0309 146.511 15.222 147.271 15.222C148.956 15.222 150.045 14.3331 150.045 12.9553C150.045 11.8976 149.44 11.1998 148.089 10.6976V10.7064Z" fill="#323232"/>
<path d="M157.236 6.83576H157.249C157.791 6.83576 158.182 6.44464 158.182 5.90242C158.182 5.3602 157.796 4.98242 157.262 4.98242C156.729 4.98242 156.329 5.37798 156.329 5.90242C156.329 6.42687 156.716 6.83576 157.231 6.83576H157.236ZM156.529 15.2313H158.004V7.82687H156.529V15.2313Z" fill="#323232"/>
<path d="M155.205 8.82679V7.66679H153.32V5.90234L153.218 5.93346L151.876 6.35568V7.66679H150.751V8.82679H151.876V12.6979C151.876 13.6135 152.049 14.2535 152.405 14.6535C152.747 15.0268 153.271 15.2357 153.885 15.2357C154.498 15.2357 154.885 15.1201 155.076 15.049L155.133 15.0268L155.062 13.8623L154.965 13.889C154.76 13.9512 154.556 13.9779 154.222 13.9779C153.587 13.9779 153.316 13.5823 153.316 12.649V8.82234H155.2L155.205 8.82679Z" fill="#323232"/>
<path d="M187.471 14.5065C187.471 14.5065 186.529 13.4976 186.457 13.4221C187.066 12.6799 187.475 11.631 187.733 10.1154L187.746 10.031H186.533L186.524 10.0932C186.355 11.1865 186.084 12.0043 185.711 12.6043C185.582 12.4576 183.684 10.2843 183.622 10.2132C184.973 9.53319 185.582 8.77763 185.582 7.77763C185.582 6.61319 184.733 5.79541 183.524 5.79541C181.986 5.79541 181.155 6.97319 181.155 8.0843C181.155 8.67541 181.422 9.32874 181.911 9.97319C180.751 10.6354 180.155 11.5287 180.155 12.6354C180.155 13.9243 181.129 15.231 182.991 15.231C184.022 15.231 184.857 14.911 185.613 14.2399C185.671 14.2976 185.791 14.4265 185.791 14.4265L186.431 15.0843H188.013L187.471 14.5021V14.5065ZM183.204 14.2132H183.191C182.173 14.2132 181.435 13.4799 181.435 12.4665C181.435 11.6087 182.013 11.0576 182.515 10.7332C182.595 10.8265 184.849 13.3465 184.946 13.4576C184.484 13.9376 183.875 14.2132 183.209 14.2132H183.204ZM183.444 6.74652H183.457C184.129 6.74652 184.426 7.29319 184.426 7.83541C184.426 8.54652 183.889 9.0043 183.022 9.50208C182.644 9.00874 182.391 8.55541 182.391 7.98208C182.391 7.3643 182.715 6.74652 183.44 6.74652H183.444Z" fill="#323232"/>
<path d="M174.675 7.8578H173.431C173.431 7.8578 173.404 8.55558 173.391 8.8178C173.08 8.3378 172.444 7.69336 171.173 7.69336C169.506 7.69336 167.817 9.03558 167.817 11.6045C167.817 13.7067 169.146 15.2311 170.982 15.2311C171.942 15.2311 172.76 14.8134 173.235 14.1289V14.7334C173.235 16.7689 172.008 17.1956 170.982 17.1956C170.213 17.1956 169.453 16.9867 168.897 16.6267L168.813 16.5689L168.431 17.7422L168.48 17.7734C169.044 18.1511 169.986 18.3867 170.933 18.3867C171.573 18.3867 172.773 18.2711 173.635 17.4978C174.368 16.8134 174.697 15.7689 174.697 14.1156V9.91114L174.76 7.86225H174.68L174.675 7.8578ZM171.368 14.0711C169.946 14.0711 169.306 12.8045 169.306 11.5467C169.306 9.94669 170.142 8.87114 171.382 8.87114C172.226 8.87114 172.888 9.37336 173.146 10.2222L173.217 10.7822V12.0845C173.217 12.3422 173.182 12.5822 173.115 12.76C172.866 13.5556 172.177 14.0711 171.364 14.0711H171.368Z" fill="#323232"/>
</g>
<defs>
<linearGradient id="paint0_linear_2_11400" x1="49.6999" y1="26.2057" x2="49.6999" y2="-0.00818823" gradientUnits="userSpaceOnUse">
<stop stop-color="#0972BA"/>
<stop offset="0.19" stop-color="#0972BA"/>
<stop offset="1" stop-color="#7DD2F5"/>
</linearGradient>
<linearGradient id="paint1_linear_2_11400" x1="31.068" y1="31.4188" x2="31.068" y2="5.20492" gradientUnits="userSpaceOnUse">
<stop stop-color="#7DD2F5"/>
<stop offset="0.87" stop-color="#0972BA"/>
<stop offset="1" stop-color="#0972BA"/>
</linearGradient>
<linearGradient id="paint2_linear_2_11400" x1="25.204" y1="6.26938" x2="51.4178" y2="6.26938" gradientUnits="userSpaceOnUse">
<stop stop-color="#7DD2F5"/>
<stop offset="0.87" stop-color="#0972BA"/>
<stop offset="1" stop-color="#0972BA"/>
</linearGradient>
<linearGradient id="paint3_linear_2_11400" x1="30.3049" y1="25.0189" x2="56.6137" y2="25.0189" gradientUnits="userSpaceOnUse">
<stop stop-color="#0972BA"/>
<stop offset="0.12" stop-color="#0972BA"/>
<stop offset="1" stop-color="#7DD2F5"/>
</linearGradient>
<linearGradient id="paint4_linear_2_11400" x1="49.6999" y1="26.2057" x2="49.6999" y2="-0.00818823" gradientUnits="userSpaceOnUse">
<stop stop-color="#0972BA"/>
<stop offset="0.19" stop-color="#0972BA"/>
<stop offset="1" stop-color="#7DD2F5"/>
</linearGradient>
<linearGradient id="paint5_linear_2_11400" x1="31.068" y1="31.4188" x2="31.068" y2="5.20492" gradientUnits="userSpaceOnUse">
<stop stop-color="#7DD2F5"/>
<stop offset="0.87" stop-color="#0972BA"/>
<stop offset="1" stop-color="#0972BA"/>
</linearGradient>
<linearGradient id="paint6_linear_2_11400" x1="25.204" y1="6.26938" x2="51.4178" y2="6.26938" gradientUnits="userSpaceOnUse">
<stop stop-color="#7DD2F5"/>
<stop offset="0.87" stop-color="#0972BA"/>
<stop offset="1" stop-color="#0972BA"/>
</linearGradient>
<linearGradient id="paint7_linear_2_11400" x1="30.3049" y1="25.0189" x2="56.6137" y2="25.0189" gradientUnits="userSpaceOnUse">
<stop stop-color="#0972BA"/>
<stop offset="0.12" stop-color="#0972BA"/>
<stop offset="1" stop-color="#7DD2F5"/>
</linearGradient>
<clipPath id="clip0_2_11400">
<rect width="240" height="32" fill="white"/>
</clipPath>
</defs>
</svg>
