<svg width="20" height="20" viewBox="0 0 20 20" fill="none" xmlns="http://www.w3.org/2000/svg">
<path d="M10 2L10.3536 1.64645C10.1583 1.45118 9.84171 1.45118 9.64645 1.64645L10 2ZM2 10L1.64645 9.64645C1.50345 9.78945 1.46067 10.0045 1.53806 10.1913C1.61545 10.3782 1.79777 10.5 2 10.5V10ZM18 10V10.5C18.2022 10.5 18.3846 10.3782 18.4619 10.1913C18.5393 10.0045 18.4966 9.78945 18.3536 9.64645L18 10ZM16 10V9.5C15.7239 9.5 15.5 9.72386 15.5 10H16ZM16 18V18.5C16.2761 18.5 16.5 18.2761 16.5 18H16ZM12 18H11.5C11.5 18.2761 11.7239 18.5 12 18.5V18ZM12 12H12.5C12.5 11.7239 12.2761 11.5 12 11.5V12ZM8 12V11.5C7.72386 11.5 7.5 11.7239 7.5 12H8ZM8 18V18.5C8.27614 18.5 8.5 18.2761 8.5 18H8ZM4 18H3.5C3.5 18.2761 3.72386 18.5 4 18.5V18ZM4 10H4.5C4.5 9.72386 4.27614 9.5 4 9.5V10ZM9.64645 1.64645L1.64645 9.64645L2.35355 10.3536L10.3536 2.35355L9.64645 1.64645ZM18.3536 9.64645L10.3536 1.64645L9.64645 2.35355L17.6464 10.3536L18.3536 9.64645ZM16 10.5H18V9.5H16V10.5ZM16.5 18V10H15.5V18H16.5ZM12.1818 18.5H16V17.5H12.1818V18.5ZM12 18.5H12.1818V17.5H12V18.5ZM11.5 12V18H12.5V12H11.5ZM8 12.5H12V11.5H8V12.5ZM8.5 18V12H7.5V18H8.5ZM4 18.5H8V17.5H4V18.5ZM3.5 10V18H4.5V10H3.5ZM2 10.5H4V9.5H2V10.5Z" fill="white"/>
</svg>
