<svg width="72" height="72" viewBox="0 0 72 72" fill="none" xmlns="http://www.w3.org/2000/svg">
<path d="M56.7495 35.9586H54.8547V33.3735H56.7495C57.6816 33.3735 58.4395 32.6084 58.4395 31.6674C58.4395 30.7264 57.6816 29.9612 56.7495 29.9612H55.1415L55.5 28.3791C55.5717 28.0793 55.6024 27.8104 55.6024 27.5623C55.6024 25.5769 53.9944 23.9535 52.0279 23.9535L51.7104 23.9948L49.9488 24.1603L50.3482 22.4231C50.4609 21.9371 50.5223 21.4408 50.5223 20.9754C50.5223 17.439 47.675 14.5644 44.1723 14.5644C41.0587 14.5644 38.4367 16.8083 37.9143 19.9104L37.5559 22.0508L35.8659 20.7169C35.5484 20.4688 35.0363 20.1792 34.3501 20.1792C32.9777 20.1792 31.8715 21.3063 31.8715 22.6816C31.8715 22.7333 31.8818 22.7747 31.892 22.8264L32.1583 25.1426L30.1508 24.3257C29.5875 24.0982 29.0037 23.9845 28.3994 23.9845C25.8287 23.9845 23.7291 26.0939 23.7291 28.6997V29.9922H21.2505C20.3184 29.9922 19.5605 30.7574 19.5605 31.6984C19.5605 32.6394 20.3184 33.4046 21.2505 33.4046H29.0959V35.9897H21.2505C18.905 35.9897 17 34.0664 17 31.6984C17 29.3305 18.905 27.4072 21.2505 27.4072C21.8855 23.9948 24.8454 21.3994 28.3892 21.3994C28.7477 21.3994 29.0959 21.4304 29.4441 21.4821C29.987 19.2589 31.9739 17.6045 34.3399 17.6045C34.852 17.6045 35.3436 17.6872 35.825 17.832C37.1052 14.3679 40.3827 12 44.162 12C49.0782 12 53.0726 16.0327 53.0726 20.9961C53.0726 21.1616 53.0726 21.327 53.0624 21.4925C55.9506 21.9888 58.1629 24.5429 58.1629 27.6036V27.6553C59.8119 28.2447 61 29.8371 61 31.7087C61 34.0767 59.095 36 56.7495 36V35.9586Z" fill="#121212"/>
<path d="M38.7016 58.1202C36.3786 58.1202 34.4795 56.2296 34.4795 53.8981C34.4795 51.8633 37.3281 48.4806 37.8962 47.8277L38.6931 46.9121L39.4901 47.8277C40.0581 48.489 42.9067 51.8633 42.9067 53.8981C42.9067 56.2211 41.0161 58.1202 38.6846 58.1202H38.7016ZM38.7016 50.1931C37.591 51.6259 36.599 53.2283 36.599 53.8981C36.599 55.0596 37.5401 56.0006 38.7016 56.0006C39.8631 56.0006 40.8042 55.0596 40.8042 53.8981C40.8042 53.2283 39.8207 51.6259 38.7016 50.1931Z" fill="#121212"/>
<path d="M44.238 47.1323C41.915 47.1323 40.0159 45.2417 40.0159 42.9102C40.0159 40.8755 42.8645 37.4927 43.4325 36.8314L44.2295 35.9158L45.0264 36.8314C45.5945 37.4927 48.4431 40.867 48.4431 42.9102C48.4431 45.2332 46.5525 47.1323 44.221 47.1323H44.238ZM44.238 39.2053C43.1273 40.6381 42.1354 42.2404 42.1354 42.9102C42.1354 44.0717 43.0765 45.0128 44.238 45.0128C45.3995 45.0128 46.3405 44.0717 46.3405 42.9102C46.3405 42.2574 45.3571 40.6466 44.238 39.2053Z" fill="#121212"/>
<path d="M32.0888 46.5898C29.7658 46.5898 27.8667 44.6992 27.8667 42.3677C27.8667 40.333 30.7153 36.9502 31.2834 36.2974L32.0803 35.3733L32.8773 36.2974C33.4453 36.9502 36.2939 40.333 36.2939 42.3677C36.2939 44.6907 34.4033 46.5898 32.0718 46.5898H32.0888ZM32.0888 38.6628C30.9782 40.0956 29.9862 41.698 29.9862 42.3677C29.9862 43.5292 30.9273 44.4703 32.0888 44.4703C33.2503 44.4703 34.1914 43.5292 34.1914 42.3677C34.1914 41.698 33.2079 40.0956 32.0888 38.6628Z" fill="#121212"/>
</svg>
