<svg width="72" height="72" viewBox="0 0 72 72" fill="none" xmlns="http://www.w3.org/2000/svg">
<path d="M34.2049 58.9986C29.8248 58.9986 19.6428 58.6719 19.6428 55.6517V31.8525L10.7943 27.6755L16.3313 17.2816L16.5785 17.1226C16.8434 16.9548 23.1399 13.0074 27.3787 13.0074H28.4825V14.1113C28.4825 15.9746 31.1053 17.5465 34.2049 17.5465C37.3046 17.5465 39.9273 15.9746 39.9273 14.1113V13.0074H41.0312C45.27 13.0074 51.5664 16.9548 51.8313 17.1226L52.0786 17.2816L56.7943 26.1213L54.8427 27.1633L50.4096 18.8447C49.3587 18.2088 45.1287 15.745 41.9673 15.2946C41.2255 17.8821 38.0817 19.7631 34.2049 19.7631C30.3282 19.7631 27.1844 17.8733 26.4426 15.2946C23.29 15.7538 19.0512 18.2088 18.0003 18.8447L13.8321 26.6688L21.8505 30.4572V55.3515C22.7954 55.9078 26.9901 56.7997 34.2049 56.7997C41.4198 56.7997 45.6144 55.9078 46.5593 55.3515V34.802H48.767V55.6605C48.767 58.6807 38.585 59.0074 34.2049 59.0074V58.9986Z" fill="#121212"/>
<path d="M52.673 13.3341L30.4472 35.5599L32.0088 37.1216L54.2347 14.8957L52.673 13.3341Z" fill="#121212"/>
<path d="M58.4353 14.8156L46.1792 27.0717L47.7409 28.6333L59.997 16.3772L58.4353 14.8156Z" fill="#121212"/>
<path d="M44.005 29.2467L30.4496 42.8021L32.0113 44.3638L45.5667 30.8084L44.005 29.2467Z" fill="#121212"/>
<path d="M57.0751 23.4428L37.9725 42.5453L39.5342 44.107L58.6367 25.0045L57.0751 23.4428Z" fill="#121212"/>
<path d="M53.2907 34.4732L36.8368 50.9271L38.3985 52.4888L54.8524 36.0349L53.2907 34.4732Z" fill="#121212"/>
<path d="M59.6455 35.376L57.2655 37.756L58.8271 39.3177L61.2071 36.9377L59.6455 35.376Z" fill="#121212"/>
<path d="M54.6448 40.3814L44.4626 50.5636L46.0243 52.1253L56.2065 41.9431L54.6448 40.3814Z" fill="#121212"/>
<path d="M36.3921 44.1255L31.0636 49.454L32.6253 51.0157L37.9538 45.6872L36.3921 44.1255Z" fill="#121212"/>
<path d="M28.4463 37.5639L23.9424 42.0677L25.5041 43.6294L30.0079 39.1255L28.4463 37.5639Z" fill="#121212"/>
</svg>
