<svg width="72" height="72" viewBox="0 0 72 72" fill="none" xmlns="http://www.w3.org/2000/svg">
<path d="M40.3297 20.6578H27.8374L29.0893 12.96H39.0867L40.3386 20.6578H40.3297ZM30.4477 18.4381H37.7282L37.2044 15.1796H30.9805L30.4566 18.4381H30.4477Z" fill="#121212"/>
<path d="M42.78 26.1269H25.3867L26.6386 18.438H41.537L42.7889 26.1269H42.78ZM27.9971 23.9073H40.1697L39.6459 20.6577H28.5298L28.0059 23.9073H27.9971Z" fill="#121212"/>
<path d="M48.5601 59.2001H23.7797C22.3059 59.2001 20.9297 58.6229 19.8998 57.5664C18.8609 56.5187 18.3105 55.1247 18.3371 53.642C18.5058 45.7489 19.518 36.1155 25.7153 24.4933L27.6775 25.541C21.6932 36.7459 20.7255 46.0596 20.5568 53.6864C20.539 54.5654 20.8675 55.3911 21.4802 56.0126C22.0928 56.6341 22.9096 56.9804 23.7797 56.9804H48.569C49.448 56.9804 50.2648 56.6341 50.8775 56.0037C51.4901 55.3733 51.8097 54.5299 51.7831 53.6509C51.5345 46.0152 50.0517 35.9468 40.667 25.7718L42.3007 24.2625C52.1826 34.9701 53.7453 45.5535 54.0028 53.571C54.0471 55.0626 53.5055 56.4743 52.4756 57.5397C51.4457 58.6052 50.0606 59.1912 48.569 59.1912L48.5601 59.2001Z" fill="#121212"/>
<path d="M46.6601 53.4289H42.0876C40.9333 53.4289 39.9922 52.4878 39.9922 51.3336V31.0813L41.8478 32.7594C47.4414 37.8291 48.5424 47.3559 48.7554 51.2093C48.791 51.7775 48.5779 52.3457 48.1872 52.763C47.7965 53.1803 47.2372 53.4201 46.6601 53.4201V53.4289ZM42.2119 51.2093H46.5358C46.3848 48.6611 45.6479 41.4072 42.2119 36.5328V51.2093Z" fill="#121212"/>
</svg>
