<svg width="72" height="72" viewBox="0 0 72 72" fill="none" xmlns="http://www.w3.org/2000/svg">
<path d="M36.0044 58.9988C31.4687 58.9988 26.9331 57.364 23.3116 54.0946L23.1026 53.911C22.9198 53.7536 22.737 53.5875 22.5629 53.4127C22.3888 53.2379 22.2321 53.063 22.0754 52.8794L21.8838 52.6609C15.3721 45.3963 15.3721 34.434 21.8838 27.1694L22.0667 26.9596C22.2234 26.7761 22.3801 26.5925 22.5542 26.4264C22.7283 26.2515 22.9024 26.0942 23.0852 25.9368L23.3029 25.7445L36.0044 12.9988L48.9061 25.9281C49.0889 26.0854 49.2717 26.2515 49.4458 26.4264C49.6199 26.6012 49.7766 26.7761 49.9333 26.9596L50.1161 27.1694C56.6279 34.434 56.6279 45.3963 50.1161 52.6609L49.9333 52.8707C49.7766 53.0543 49.6112 53.2379 49.4371 53.4127C49.263 53.5875 49.0889 53.7449 48.9061 53.9022L48.6971 54.0858C45.0756 57.3553 40.54 58.99 36.0044 58.99V58.9988ZM36.0044 16.0934L24.5304 27.5891C24.3911 27.7114 24.2431 27.8426 24.1125 27.9737C23.9819 28.1048 23.8513 28.2622 23.7207 28.402L23.5118 28.6381C17.7487 35.0721 17.7487 44.7757 23.5118 51.201L23.7207 51.4458C23.8426 51.5856 23.9732 51.7342 24.1038 51.8654C24.2431 52.0052 24.3911 52.1276 24.5304 52.2588L24.7654 52.4686C31.1727 58.2557 40.8273 58.2557 47.2346 52.4686L47.4696 52.2588C47.6176 52.1276 47.7569 52.0052 47.8962 51.8654C48.0355 51.7255 48.1661 51.5769 48.288 51.4283L48.4969 51.1922C54.26 44.7582 54.26 35.0634 48.4969 28.6293L48.288 28.3933C48.1574 28.2447 48.0355 28.1048 47.8962 27.965C47.7569 27.8251 47.6089 27.694 47.4609 27.5716L47.2259 27.3618L36.0044 16.0934Z" fill="#121212"/>
<path d="M33.0117 52.9988L35.5543 41.1153H26L39.9883 22.9988L37.4457 34.8823H47L33.0117 52.9988ZM30.4428 38.942H38.2727L37.1906 44.0101L42.566 37.0469H34.7449L35.827 31.9788L30.4516 38.942H30.4428Z" fill="#121212"/>
</svg>
