<svg width="72" height="72" viewBox="0 0 72 72" fill="none" xmlns="http://www.w3.org/2000/svg">
<path d="M12.9672 62.5608L10.74 61.3545C14.8704 53.6911 19.3957 50.2344 25.6521 45.4498C32.5058 40.2091 41.0298 33.681 53.4616 18.496L55.4155 20.1077C42.7914 35.5259 33.7712 42.4291 27.1807 47.4671C21.1774 52.059 16.8344 55.3839 12.9672 62.5608Z" fill="#121212"/>
<path d="M61.8845 25.4498C61.105 28.2476 57.4908 36.3672 55.456 39.1143C53.4718 41.8005 50.5258 43.9495 50.3942 44.0306L50.0905 44.2536L45.8386 44.4361L47.6001 45.2268L46.9927 46.4128C46.8104 46.7676 42.5484 54.9784 35.0265 54.9784C34.8038 54.9784 34.5811 54.9784 34.3483 54.9581C26.9681 54.4817 21.2078 51.5218 20.9648 51.4001L22.1291 49.1497C22.1797 49.1801 27.6869 51.988 34.5102 52.4341C39.2481 52.7078 42.6597 48.5212 44.0366 46.4128L34.986 42.3682L49.1996 41.7498C49.9589 41.1619 52.0038 39.4995 53.4211 37.5937C55.2636 35.1102 58.7158 27.3859 59.4447 24.7605" fill="#121212"/>
<path d="M60.7912 12.353C58.726 13.3768 55.122 14.867 50.5967 15.6069C43.0749 16.8335 36.3326 23.8279 35.0469 25.2268L32.354 39.1954L29.5497 30.356C28.7803 30.9237 27.8793 31.4508 26.9581 31.9779C24.8524 33.1944 22.6657 34.4513 22.4632 36.1847C22.0178 39.9455 22.5847 43.1183 24.6297 48.2881L22.2709 49.2207C20.0842 43.686 19.4565 40.0671 19.9526 35.8908C20.3069 32.8903 23.1719 31.2379 25.7028 29.7782C27.0897 28.9774 28.5273 28.1462 29.1043 27.3049L30.5722 25.1457L31.7668 28.9267L32.7083 24.0712L32.931 23.8178C33.255 23.4427 40.9591 14.6237 50.2019 13.1133C56.7823 12.0286 61.3278 9.19032 61.3683 9.15991" fill="#121212"/>
<path d="M22.9592 49.9203C22.4327 49.6973 21.9671 49.4945 21.5419 49.3019C19.1122 48.2173 18.0998 47.7713 13.9593 48.1767L13.7163 45.6527C18.525 45.1864 19.9626 45.825 22.5745 46.9806C22.9895 47.1631 23.4451 47.3658 23.9513 47.5787L22.9693 49.9101L22.9592 49.9203Z" fill="#121212"/>
<path d="M23.445 59.5399L21.0153 58.8202C22.1795 54.9074 21.643 52.8395 20.4788 50.9439L22.6351 49.616C24.4168 52.505 24.6598 55.4751 23.445 59.5399Z" fill="#121212"/>
</svg>
