<svg width="72" height="72" viewBox="0 0 72 72" fill="none" xmlns="http://www.w3.org/2000/svg">
<path d="M53.6425 55.5221L51.6712 55.2427L53.004 45.8969C50.7614 46.1204 47.5131 45.6096 45.2225 42.7125C44.1211 43.2871 42.0461 44.1092 39.4044 43.9176C36.7946 43.7341 32.4609 43.4867 30.3698 43.3749L32.0538 55.2507L30.0745 55.53L28.0474 41.252L29.2605 41.3158C29.3243 41.3158 36.0044 41.675 39.548 41.9304C42.6925 42.1618 44.8953 40.5975 44.9192 40.5816L45.7732 39.967L46.3399 40.8529C49.0694 45.1228 53.842 43.7181 53.8899 43.7022L55.3903 43.2472L53.6345 55.53L53.6425 55.5221Z" fill="#121212"/>
<path d="M26.6267 55.3863H24.6314V42.8721C23.4742 42.5928 21.463 41.8745 20.2259 40.1905C19.3161 38.9534 18.7973 37.0938 18.3344 35.4577C18.1189 34.6995 17.8476 33.7338 17.5922 33.1512L12.1172 34.7554L10.2177 32.5686C9.3797 31.6029 9.47547 30.1264 10.4252 29.2724L11.3191 28.4743L16.0518 20.7407L17.8476 20.3018L16.6105 18.2107V16H18.6058V17.668L20.9442 21.6027L17.3288 22.4886L12.8674 29.7752L11.758 30.7729C11.6144 30.9006 11.5984 31.124 11.7261 31.2757L12.7796 32.4968L18.2865 30.8766L18.7015 31.2757C19.4118 31.9541 19.779 33.263 20.2499 34.923C20.6649 36.3995 21.1357 38.0675 21.8301 39.0173C23.0831 40.7252 25.7169 41.0684 25.7408 41.0684L26.6187 41.1721V42.058V55.3863H26.6267Z" fill="#121212"/>
<path d="M58.7901 55.3863H56.7949V43.5744C56.5315 42.6805 55.4142 38.7618 55.3184 37.2694C55.2466 36.16 55.6855 34.8671 56.1564 33.4943C56.4597 32.6164 56.7709 31.7146 56.9625 30.8127C57.3057 29.2484 57.4653 26.6626 57.5371 25.226H25.5971L23.1549 23.6537L23.5699 22.8477C23.8412 22.3129 24.1605 21.4669 24.2802 20.6848L21.5587 22.4406L19.1963 21.9298L19.6193 19.9825L21.1756 20.3177L25.5651 17.5004L26.036 18.5698C26.6665 20.0144 26.1478 21.866 25.7248 22.9275L26.1877 23.2228H59.6122L59.5803 24.2523C59.5803 24.4359 59.4446 28.8175 58.9178 31.2277C58.6944 32.2413 58.3512 33.2469 58.0479 34.1328C57.6409 35.306 57.2658 36.4234 57.3137 37.1337C57.3935 38.2989 58.3831 41.8744 58.7582 43.1514L58.7981 43.2871V55.3863H58.7901Z" fill="#121212"/>
<path d="M61.9267 41.4116L59.9315 41.3717L60.2427 26.934C60.2507 26.4791 60.0831 26.0561 59.7639 25.7289C59.4446 25.4017 59.0216 25.2261 58.5747 25.2261V23.2308C59.5723 23.2308 60.4981 23.6219 61.1925 24.3322C61.8868 25.0425 62.2619 25.9843 62.238 26.9739L61.9188 41.4116H61.9267Z" fill="#121212"/>
</svg>
