<svg width="180" height="24" viewBox="0 0 180 24" fill="none" xmlns="http://www.w3.org/2000/svg">
<g clip-path="url(#clip0_0_747)">
<mask id="mask0_0_747" style="mask-type:luminance" maskUnits="userSpaceOnUse" x="32" y="0" width="11" height="20">
<path d="M39.4839 9.93632C39.4839 14.483 36.6005 18.3563 32.5605 19.823H32.5839C38.0205 19.823 42.4305 15.4163 42.4305 9.97965C42.4305 4.54298 38.1305 0.249648 32.7872 0.139648C36.7039 1.66965 39.4805 5.47965 39.4805 9.93965" fill="white"/>
</mask>
<g mask="url(#mask0_0_747)">
<path d="M42.4272 0.139648H32.5605V19.8263H42.4272V0.139648Z" fill="url(#paint0_linear_0_747)"/>
</g>
<mask id="mask1_0_747" style="mask-type:luminance" maskUnits="userSpaceOnUse" x="18" y="4" width="11" height="20">
<path d="M18.5469 13.8999C18.5469 19.2666 22.8435 23.6299 28.1869 23.7399C24.2702 22.2099 21.4935 18.3999 21.4935 13.9399C21.4935 9.47989 24.3769 5.52322 28.4135 4.05322H28.3935C22.9569 4.05322 18.5469 8.45989 18.5469 13.8999Z" fill="white"/>
</mask>
<g mask="url(#mask1_0_747)">
<path d="M28.4174 4.05322H18.5508V23.7399H28.4174V4.05322Z" fill="url(#paint1_linear_0_747)"/>
</g>
<mask id="mask2_0_747" style="mask-type:luminance" maskUnits="userSpaceOnUse" x="18" y="0" width="21" height="10">
<path d="M18.6895 9.63667C20.2195 5.72 24.0295 2.94333 28.4861 2.94333C32.9428 2.94333 36.9028 5.82667 38.3728 9.86667V9.84667C38.3728 4.41 33.9661 0 28.5295 0C23.0928 0 18.7995 4.29667 18.6895 9.63667Z" fill="white"/>
</mask>
<g mask="url(#mask2_0_747)">
<path d="M38.3761 0H18.6895V9.86667H38.3761V0Z" fill="url(#paint2_linear_0_747)"/>
</g>
<mask id="mask3_0_747" style="mask-type:luminance" maskUnits="userSpaceOnUse" x="22" y="14" width="21" height="10">
<path d="M22.5996 14.0333C22.5996 19.4699 27.0096 23.8799 32.4463 23.8799C37.8829 23.8799 42.1763 19.5833 42.2863 14.2399C40.7563 18.1566 36.9463 20.9366 32.4863 20.9366C28.0263 20.9366 24.0696 18.0533 22.5996 14.0166C22.5996 14.0233 22.5996 14.0299 22.5996 14.0366" fill="white"/>
</mask>
<g mask="url(#mask3_0_747)">
<path d="M42.2863 14.0132H22.5996V23.8798H42.2863V14.0132Z" fill="url(#paint3_linear_0_747)"/>
</g>
<path d="M63.2833 8.47671V23.4H68.3333V3.54004H63.2833V8.47671ZM89.6533 3.54004V23.4H94.7V3.54004H89.6533ZM13.69 8.47671L17.75 3.54004H10.69L8.92 5.97337L7.1 8.47337L5.88 10.1534L5.04667 11.3034V3.54004H0V18.25V23.4H5.05V18.9834L8.10667 15.27L11.6367 23.4H18.14L11.5967 11.0267L13.6933 8.47671H13.69ZM49.82 3.54004H44.5467V8.47671H49.82V23.4H54.8667V8.47671H60.59V3.54004H49.82ZM76.5233 3.54004H71.0233V8.47671H76.5233V23.4H81.5733V8.47671H87.07V3.54004H76.5233Z" fill="#0972BA"/>
<mask id="mask4_0_747" style="mask-type:luminance" maskUnits="userSpaceOnUse" x="32" y="0" width="11" height="20">
<path d="M39.4839 9.93632C39.4839 14.483 36.6005 18.3563 32.5605 19.823H32.5839C38.0205 19.823 42.4305 15.4163 42.4305 9.97965C42.4305 4.54298 38.1305 0.249648 32.7872 0.139648C36.7039 1.66965 39.4805 5.47965 39.4805 9.93965" fill="white"/>
</mask>
<g mask="url(#mask4_0_747)">
<path d="M42.4272 0.139648H32.5605V19.8263H42.4272V0.139648Z" fill="url(#paint4_linear_0_747)"/>
</g>
<mask id="mask5_0_747" style="mask-type:luminance" maskUnits="userSpaceOnUse" x="18" y="4" width="11" height="20">
<path d="M18.5469 13.8999C18.5469 19.2666 22.8435 23.6299 28.1869 23.7399C24.2702 22.2099 21.4935 18.3999 21.4935 13.9399C21.4935 9.47989 24.3769 5.52322 28.4135 4.05322H28.3935C22.9569 4.05322 18.5469 8.45989 18.5469 13.8999Z" fill="white"/>
</mask>
<g mask="url(#mask5_0_747)">
<path d="M28.4174 4.05322H18.5508V23.7399H28.4174V4.05322Z" fill="url(#paint5_linear_0_747)"/>
</g>
<mask id="mask6_0_747" style="mask-type:luminance" maskUnits="userSpaceOnUse" x="18" y="0" width="21" height="10">
<path d="M18.6895 9.63667C20.2195 5.72 24.0295 2.94333 28.4861 2.94333C32.9428 2.94333 36.9028 5.82667 38.3728 9.86667V9.84667C38.3728 4.41 33.9661 0 28.5295 0C23.0928 0 18.7995 4.29667 18.6895 9.63667Z" fill="white"/>
</mask>
<g mask="url(#mask6_0_747)">
<path d="M38.3761 0H18.6895V9.86667H38.3761V0Z" fill="url(#paint6_linear_0_747)"/>
</g>
<mask id="mask7_0_747" style="mask-type:luminance" maskUnits="userSpaceOnUse" x="22" y="14" width="21" height="10">
<path d="M22.5996 14.0333C22.5996 19.4699 27.0096 23.8799 32.4463 23.8799C37.8829 23.8799 42.1763 19.5833 42.2863 14.2399C40.7563 18.1566 36.9463 20.9366 32.4863 20.9366C28.0263 20.9366 24.0696 18.0533 22.5996 14.0166C22.5996 14.0233 22.5996 14.0299 22.5996 14.0366" fill="white"/>
</mask>
<g mask="url(#mask7_0_747)">
<path d="M42.2863 14.0132H22.5996V23.8798H42.2863V14.0132Z" fill="url(#paint7_linear_0_747)"/>
</g>
<path d="M63.2833 8.47671V23.4H68.3333V3.54004H63.2833V8.47671ZM89.6533 3.54004V23.4H94.7V3.54004H89.6533ZM13.69 8.47671L17.75 3.54004H10.69L8.92 5.97337L7.1 8.47337L5.88 10.1534L5.04667 11.3034V3.54004H0V18.25V23.4H5.05V18.9834L8.10667 15.27L11.6367 23.4H18.14L11.5967 11.0267L13.6933 8.47671H13.69ZM49.82 3.54004H44.5467V8.47671H49.82V23.4H54.8667V8.47671H60.59V3.54004H49.82ZM76.5233 3.54004H71.0233V8.47671H76.5233V23.4H81.5733V8.47671H87.07V3.54004H76.5233Z" fill="#025BA8"/>
<path d="M180.077 19.8431C180.077 18.6331 179.477 17.2231 177.784 17.2231C176.241 17.2231 175.164 18.4565 175.164 20.2231C175.164 21.9898 176.237 23.0231 177.894 23.0231C178.771 23.0231 179.381 22.8298 179.737 22.6698L179.784 22.6498L179.574 21.8398L179.511 21.8665C179.187 21.9965 178.761 22.1298 178.027 22.1298C176.947 22.1298 176.291 21.4665 176.247 20.3631C176.384 20.3631 180.037 20.3731 180.037 20.3731L180.074 19.8431H180.077ZM176.264 19.5365C176.364 18.8365 176.791 18.0498 177.704 18.0498C178.071 18.0498 178.367 18.1631 178.587 18.3898C178.954 18.7598 178.997 19.3098 179.001 19.5365H176.264Z" fill="#323232"/>
<path d="M131.254 18.1264C131.677 18.1264 132.051 18.2097 132.371 18.3764L132.434 18.4097L132.694 17.5431L132.651 17.5197C132.397 17.3831 131.877 17.2197 131.254 17.2197C129.501 17.2197 128.277 18.4364 128.277 20.1764C128.277 21.9164 129.387 23.0197 131.041 23.0197C131.717 23.0197 132.304 22.8531 132.627 22.6997L132.671 22.6797L132.477 21.8231L132.411 21.8531C132.127 21.9764 131.764 22.1064 131.224 22.1064C130.131 22.1064 129.397 21.3131 129.397 20.1331C129.397 19.1331 129.974 18.1264 131.257 18.1264H131.254Z" fill="#323232"/>
<path d="M136.484 17.3464C136.111 17.3464 135.751 17.4464 135.444 17.6364C135.191 17.7698 134.974 17.9864 134.804 18.2364V15.3364H133.697V23.0231H134.804V19.6864C134.804 19.5031 134.814 19.3631 134.867 19.2364C135.037 18.7631 135.491 18.2864 136.137 18.2864C137.127 18.2864 137.334 19.1331 137.334 19.8431V23.0231H138.441V19.7298C138.441 17.9698 137.387 17.3464 136.484 17.3464Z" fill="#323232"/>
<path d="M163.317 16.0234L163.241 16.0468L162.234 16.3634V17.3468H161.391V18.2168H162.234V21.1201C162.234 21.8068 162.364 22.2868 162.631 22.5868C162.887 22.8668 163.281 23.0234 163.741 23.0234C164.201 23.0234 164.491 22.9368 164.637 22.8868L164.681 22.8734L164.627 22.0001L164.554 22.0234C164.404 22.0701 164.247 22.0868 163.997 22.0868C163.521 22.0868 163.317 21.7901 163.317 21.0901V18.2201H164.731V17.3501H163.317V16.0268V16.0234ZM174.634 18.2168V17.3468H173.221V16.0234L173.144 16.0468L172.137 16.3634V17.3468H171.294V18.2168H172.137V21.1201C172.137 21.8068 172.267 22.2868 172.534 22.5868C172.791 22.8668 173.184 23.0234 173.644 23.0234C174.104 23.0234 174.394 22.9368 174.541 22.8868L174.584 22.8734L174.531 22.0001L174.457 22.0234C174.304 22.0701 174.151 22.0868 173.901 22.0868C173.424 22.0868 173.221 21.7901 173.221 21.0901V18.2201H174.634V18.2168ZM170.391 17.3468H169.284V20.7301C169.284 20.9101 169.254 21.0801 169.201 21.2134C169.041 21.6168 168.617 22.0868 167.954 22.0868C167.187 22.0868 166.801 21.5234 166.801 20.4068V17.3501H165.694V20.5868C165.694 22.7901 167.047 23.0268 167.627 23.0268C168.671 23.0268 169.191 22.4134 169.397 22.1034C169.411 22.3034 169.447 22.9034 169.447 22.9034H170.441L170.394 21.3634V17.3534L170.391 17.3468Z" fill="#323232"/>
<path d="M160.488 17.4702H159.381V23.0235H160.488V17.4702Z" fill="#323232"/>
<path d="M143.437 15.3364H142.33V23.0231H143.437V15.3364Z" fill="#323232"/>
<path d="M153.051 19.6302C152.371 19.3702 152.067 19.1835 152.067 18.7535C152.067 18.3235 152.404 18.0702 152.907 18.0702C153.274 18.0702 153.637 18.1735 153.987 18.3769L154.051 18.4135L154.324 17.5935L154.284 17.5669C153.954 17.3502 153.444 17.2202 152.927 17.2202C151.807 17.2202 150.994 17.9169 150.994 18.8735C150.994 19.5735 151.494 20.1102 152.481 20.4669C153.191 20.7335 153.441 20.9802 153.441 21.4102C153.441 21.8802 153.071 22.1602 152.454 22.1602C151.971 22.1602 151.464 21.9602 151.171 21.7869L151.107 21.7502L150.834 22.6069L150.874 22.6302C151.294 22.8769 151.861 23.0202 152.431 23.0202C153.694 23.0202 154.511 22.3535 154.511 21.3202C154.511 20.5269 154.057 20.0035 153.047 19.6269L153.051 19.6302Z" fill="#323232"/>
<path d="M147.753 17.3467C146.873 17.3467 146.277 17.8233 145.987 18.2767C145.977 18.08 145.937 17.47 145.937 17.47H144.943L144.99 19V23.0233H146.097V19.6867L146.16 19.2467C146.317 18.7633 146.773 18.2767 147.427 18.2767C148.47 18.2767 148.627 19.2533 148.627 19.8333V23.0233H149.733V19.72C149.733 17.4633 148.083 17.3467 147.753 17.3467Z" fill="#323232"/>
<path d="M156.974 16.0234L156.897 16.0468L155.891 16.3634V17.3468H155.051V18.2168H155.891V21.1201C155.891 21.8068 156.021 22.2868 156.287 22.5868C156.544 22.8668 156.937 23.0234 157.397 23.0234C157.857 23.0234 158.147 22.9368 158.291 22.8868L158.334 22.8734L158.284 22.0001L158.211 22.0234C158.057 22.0701 157.904 22.0868 157.654 22.0868C157.177 22.0868 156.974 21.7901 156.974 21.0901V18.2201H158.387V17.3501H156.974V16.0268V16.0234Z" fill="#323232"/>
<path d="M159.911 16.723H159.924C160.328 16.723 160.624 16.4297 160.624 16.023C160.624 15.6163 160.334 15.333 159.934 15.333C159.534 15.333 159.234 15.6297 159.234 16.023C159.234 16.4163 159.524 16.723 159.911 16.723Z" fill="#323232"/>
<path d="M127.547 17.3466C126.897 17.3466 126.334 17.7733 126.051 18.4266C126.041 18.1899 126.011 17.4699 126.011 17.4699H125.027L125.074 19.2233L125.064 23.0199H126.171V20.0633L126.204 19.5999C126.337 18.8699 126.834 18.3933 127.471 18.3933L127.851 18.4166L127.877 18.3566V17.3833L127.547 17.3433V17.3466Z" fill="#323232"/>
<path d="M102.96 22.9365C102.813 22.6432 102.623 21.8632 102.393 20.8732C102.197 20.0565 101.84 19.5632 101.32 19.3432C102.187 19.0132 102.71 18.2999 102.71 17.4065C102.71 16.8099 102.487 16.2699 102.093 15.9265C101.607 15.4865 100.897 15.2832 99.8533 15.2832C99.1999 15.2832 98.4799 15.3465 97.9666 15.4532L97.9199 15.4632V23.0232H99.0166V19.7465H99.8766C100.743 19.7799 101.127 20.1532 101.347 21.1699C101.57 22.2099 101.73 22.7899 101.847 22.9932L101.863 23.0232H103.003L102.96 22.9365ZM99.9532 18.8865H99.0133V16.2432C99.1266 16.2165 99.4066 16.1665 99.9199 16.1665C101.003 16.1665 101.6 16.6432 101.6 17.5099C101.6 18.3765 100.953 18.8865 99.9532 18.8865Z" fill="#323232"/>
<path d="M111.413 19.6297C110.733 19.3697 110.429 19.1831 110.429 18.7531C110.429 18.3231 110.766 18.0697 111.269 18.0697C111.636 18.0697 111.999 18.1731 112.349 18.3764L112.413 18.4131L112.686 17.5931L112.646 17.5664C112.316 17.3497 111.806 17.2197 111.289 17.2197C110.169 17.2197 109.356 17.9164 109.356 18.8731C109.356 19.5731 109.856 20.1097 110.843 20.4664C111.553 20.7331 111.803 20.9797 111.803 21.4097C111.803 21.8797 111.436 22.1597 110.819 22.1597C110.336 22.1597 109.826 21.9597 109.536 21.7864L109.473 21.7497L109.199 22.6064L109.239 22.6297C109.659 22.8764 110.226 23.0197 110.796 23.0197C112.059 23.0197 112.876 22.3531 112.876 21.3197C112.876 20.5264 112.423 20.0031 111.413 19.6264V19.6297Z" fill="#323232"/>
<path d="M123.676 22.8298C123.623 22.4898 123.596 22.0531 123.596 21.5365V19.5065C123.596 18.4665 123.226 17.2231 121.459 17.2231C120.796 17.2231 120.113 17.4031 119.633 17.7031L119.593 17.7265L119.856 18.5065L119.923 18.4631C120.286 18.2165 120.806 18.0698 121.316 18.0698C121.696 18.0665 121.989 18.1631 122.183 18.3565C122.386 18.5598 122.489 18.8665 122.489 19.2665V19.3198C121.216 19.3198 120.259 19.5998 119.729 20.1298C119.393 20.4631 119.223 20.8898 119.223 21.3998C119.223 22.1798 119.759 23.0198 120.943 23.0198C121.736 23.0198 122.296 22.6365 122.593 22.2565C122.609 22.3998 122.676 22.8965 122.676 22.8965H123.683L123.673 22.8298H123.676ZM121.193 22.1731C120.776 22.1731 120.333 21.9398 120.333 21.2898C120.333 21.0098 120.423 20.7765 120.606 20.5998C120.943 20.2731 121.583 20.1131 122.516 20.1231V21.0065L122.473 21.3031C122.336 21.7031 121.919 22.1731 121.193 22.1731Z" fill="#323232"/>
<path d="M118.546 19.8431C118.546 18.6331 117.946 17.2231 116.253 17.2231C114.709 17.2231 113.633 18.4565 113.633 20.2231C113.633 21.9898 114.706 23.0231 116.363 23.0231C117.239 23.0231 117.849 22.8298 118.206 22.6698L118.253 22.6498L118.043 21.8398L117.979 21.8665C117.656 21.9965 117.226 22.1298 116.496 22.1298C115.416 22.1298 114.759 21.4665 114.716 20.3631C114.849 20.3631 118.506 20.3731 118.506 20.3731L118.546 19.8431ZM114.733 19.5365C114.833 18.8365 115.259 18.0498 116.173 18.0498C116.539 18.0498 116.836 18.1631 117.056 18.3898C117.423 18.7598 117.466 19.3098 117.469 19.5365H114.733Z" fill="#323232"/>
<path d="M108.48 19.8431C108.48 18.6331 107.88 17.2231 106.186 17.2231C104.643 17.2231 103.566 18.4565 103.566 20.2231C103.566 21.9898 104.64 23.0231 106.3 23.0231C107.176 23.0231 107.786 22.8298 108.143 22.6698L108.19 22.6498L107.98 21.8398L107.916 21.8665C107.593 21.9965 107.163 22.1298 106.433 22.1298C105.353 22.1298 104.696 21.4665 104.65 20.3631C104.783 20.3631 108.44 20.3731 108.44 20.3731L108.48 19.8431ZM106.106 18.0498C106.473 18.0498 106.77 18.1631 106.993 18.3898C107.36 18.7598 107.403 19.3098 107.406 19.5365H104.67C104.77 18.8365 105.196 18.0498 106.11 18.0498H106.106Z" fill="#323232"/>
<path d="M108.036 8.24305C108.036 7.03638 107.436 5.62305 105.743 5.62305C104.2 5.62305 103.123 6.85638 103.123 8.62305C103.123 10.3897 104.193 11.423 105.856 11.423C106.733 11.423 107.343 11.2297 107.7 11.0697L107.746 11.0497L107.536 10.2397L107.473 10.2664C107.15 10.3964 106.723 10.5297 105.993 10.5297C104.913 10.5297 104.256 9.86638 104.21 8.76305C104.346 8.76305 108 8.77638 108 8.77638L108.036 8.24638V8.24305ZM104.223 7.93638C104.323 7.23638 104.75 6.44971 105.663 6.44971C106.03 6.44971 106.326 6.56305 106.55 6.78971C106.913 7.15971 106.96 7.70971 106.963 7.93638H104.223Z" fill="#323232"/>
<path d="M122.79 5.75C121.91 5.75 121.314 6.22667 121.024 6.68C121.01 6.48333 120.974 5.87333 120.974 5.87333H119.98L120.027 7.40333V11.4267H121.134V8.09L121.197 7.65C121.354 7.16667 121.807 6.68 122.464 6.68C123.507 6.68 123.664 7.65667 123.664 8.23667V11.43H124.77V8.12667C124.77 5.87 123.12 5.75333 122.79 5.75333V5.75Z" fill="#323232"/>
<path d="M97.9199 3.74023V4.69023H100.223V11.4269H101.33V4.69023H103.643V3.74023H97.9232H97.9199Z" fill="#323232"/>
<path d="M111.067 8.02971C110.387 7.76971 110.084 7.58305 110.084 7.15305C110.084 6.72305 110.421 6.47305 110.921 6.47305C111.287 6.47305 111.651 6.57638 112.004 6.77971L112.067 6.81638L112.341 5.99638L112.304 5.96971C111.971 5.75305 111.464 5.62305 110.947 5.62305C109.827 5.62305 109.014 6.31971 109.014 7.27638C109.014 7.97638 109.514 8.51305 110.501 8.86971C111.207 9.13638 111.461 9.38305 111.461 9.81305C111.461 10.283 111.094 10.5597 110.477 10.5597C109.994 10.5597 109.484 10.3597 109.194 10.1864L109.131 10.1464L108.857 11.003L108.897 11.0264C109.317 11.273 109.884 11.4164 110.454 11.4164C111.717 11.4164 112.534 10.7497 112.534 9.71638C112.534 8.92305 112.081 8.39971 111.067 8.02305V8.02971Z" fill="#323232"/>
<path d="M117.926 5.12682H117.936C118.343 5.12682 118.636 4.83348 118.636 4.42682C118.636 4.02015 118.346 3.73682 117.946 3.73682C117.546 3.73682 117.246 4.03348 117.246 4.42682C117.246 4.82015 117.536 5.12682 117.923 5.12682H117.926ZM117.396 11.4235H118.503V5.87015H117.396V11.4235Z" fill="#323232"/>
<path d="M116.402 6.62009V5.75009H114.989V4.42676L114.912 4.45009L113.906 4.76676V5.75009H113.062V6.62009H113.906V9.52342C113.906 10.2101 114.036 10.6901 114.303 10.9901C114.559 11.2701 114.952 11.4268 115.412 11.4268C115.872 11.4268 116.163 11.3401 116.306 11.2868L116.349 11.2701L116.296 10.3968L116.223 10.4168C116.069 10.4634 115.916 10.4834 115.666 10.4834C115.189 10.4834 114.986 10.1868 114.986 9.48676V6.61676H116.399L116.402 6.62009Z" fill="#323232"/>
<path d="M140.604 10.88C140.604 10.88 139.897 10.1233 139.844 10.0667C140.301 9.51001 140.607 8.72335 140.801 7.58668L140.811 7.52335H139.901L139.894 7.57001C139.767 8.39001 139.564 9.00335 139.284 9.45335C139.187 9.34335 137.764 7.71335 137.717 7.66001C138.731 7.15001 139.187 6.58335 139.187 5.83335C139.187 4.96001 138.551 4.34668 137.644 4.34668C136.491 4.34668 135.867 5.23001 135.867 6.06335C135.867 6.50668 136.067 6.99668 136.434 7.48001C135.564 7.97668 135.117 8.64668 135.117 9.47668C135.117 10.4433 135.847 11.4233 137.244 11.4233C138.017 11.4233 138.644 11.1833 139.211 10.68C139.254 10.7233 139.344 10.82 139.344 10.82L139.824 11.3133H141.011L140.604 10.8767V10.88ZM137.404 10.66H137.394C136.631 10.66 136.077 10.11 136.077 9.35001C136.077 8.70668 136.511 8.29335 136.887 8.05001C136.947 8.12001 138.637 10.01 138.711 10.0933C138.364 10.4533 137.907 10.66 137.407 10.66H137.404ZM137.584 5.06001H137.594C138.097 5.06001 138.321 5.47001 138.321 5.87668C138.321 6.41001 137.917 6.75335 137.267 7.12668C136.984 6.75668 136.794 6.41668 136.794 5.98668C136.794 5.52335 137.037 5.06001 137.581 5.06001H137.584Z" fill="#323232"/>
<path d="M131.007 5.89335H130.073C130.073 5.89335 130.053 6.41669 130.043 6.61335C129.81 6.25335 129.333 5.77002 128.38 5.77002C127.13 5.77002 125.863 6.77669 125.863 8.70335C125.863 10.28 126.86 11.4234 128.237 11.4234C128.957 11.4234 129.57 11.11 129.927 10.5967V11.05C129.927 12.5767 129.007 12.8967 128.237 12.8967C127.66 12.8967 127.09 12.74 126.673 12.47L126.61 12.4267L126.323 13.3067L126.36 13.33C126.783 13.6134 127.49 13.79 128.2 13.79C128.68 13.79 129.58 13.7034 130.227 13.1234C130.777 12.61 131.023 11.8267 131.023 10.5867V7.43335L131.07 5.89669H131.01L131.007 5.89335ZM128.527 10.5534C127.46 10.5534 126.98 9.60335 126.98 8.66002C126.98 7.46002 127.607 6.65335 128.537 6.65335C129.17 6.65335 129.667 7.03002 129.86 7.66669L129.913 8.08669V9.06335C129.913 9.25669 129.887 9.43669 129.837 9.57002C129.65 10.1667 129.133 10.5534 128.523 10.5534H128.527Z" fill="#323232"/>
</g>
<defs>
<linearGradient id="paint0_linear_0_747" x1="37.2756" y1="19.654" x2="37.2756" y2="-0.00638531" gradientUnits="userSpaceOnUse">
<stop stop-color="#0972BA"/>
<stop offset="0.19" stop-color="#0972BA"/>
<stop offset="1" stop-color="#7DD2F5"/>
</linearGradient>
<linearGradient id="paint1_linear_0_747" x1="23.3017" y1="23.5641" x2="23.3017" y2="3.90369" gradientUnits="userSpaceOnUse">
<stop stop-color="#7DD2F5"/>
<stop offset="0.87" stop-color="#0972BA"/>
<stop offset="1" stop-color="#0972BA"/>
</linearGradient>
<linearGradient id="paint2_linear_0_747" x1="18.9025" y1="4.70203" x2="38.5629" y2="4.70203" gradientUnits="userSpaceOnUse">
<stop stop-color="#7DD2F5"/>
<stop offset="0.87" stop-color="#0972BA"/>
<stop offset="1" stop-color="#0972BA"/>
</linearGradient>
<linearGradient id="paint3_linear_0_747" x1="22.7279" y1="18.7639" x2="42.4595" y2="18.7639" gradientUnits="userSpaceOnUse">
<stop stop-color="#0972BA"/>
<stop offset="0.12" stop-color="#0972BA"/>
<stop offset="1" stop-color="#7DD2F5"/>
</linearGradient>
<linearGradient id="paint4_linear_0_747" x1="37.2756" y1="19.654" x2="37.2756" y2="-0.00638531" gradientUnits="userSpaceOnUse">
<stop stop-color="#0972BA"/>
<stop offset="0.19" stop-color="#0972BA"/>
<stop offset="1" stop-color="#7DD2F5"/>
</linearGradient>
<linearGradient id="paint5_linear_0_747" x1="23.3017" y1="23.5641" x2="23.3017" y2="3.90369" gradientUnits="userSpaceOnUse">
<stop stop-color="#7DD2F5"/>
<stop offset="0.87" stop-color="#0972BA"/>
<stop offset="1" stop-color="#0972BA"/>
</linearGradient>
<linearGradient id="paint6_linear_0_747" x1="18.9025" y1="4.70203" x2="38.5629" y2="4.70203" gradientUnits="userSpaceOnUse">
<stop stop-color="#7DD2F5"/>
<stop offset="0.87" stop-color="#0972BA"/>
<stop offset="1" stop-color="#0972BA"/>
</linearGradient>
<linearGradient id="paint7_linear_0_747" x1="22.7279" y1="18.7639" x2="42.4595" y2="18.7639" gradientUnits="userSpaceOnUse">
<stop stop-color="#0972BA"/>
<stop offset="0.12" stop-color="#0972BA"/>
<stop offset="1" stop-color="#7DD2F5"/>
</linearGradient>
<clipPath id="clip0_0_747">
<rect width="180" height="24" fill="white"/>
</clipPath>
</defs>
</svg>
