<svg width="196" height="24" viewBox="0 0 196 24" fill="none" xmlns="http://www.w3.org/2000/svg">
<g clip-path="url(#clip0_0_117)">
<mask id="mask0_0_117" style="mask-type:luminance" maskUnits="userSpaceOnUse" x="32" y="0" width="11" height="20">
<path d="M39.6499 9.9368C39.6499 14.4835 36.7666 18.3568 32.7266 19.8235H32.7499C38.1866 19.8235 42.5966 15.4168 42.5966 9.98014C42.5966 4.54347 38.2966 0.250137 32.9532 0.140137C36.8699 1.67014 39.6466 5.48014 39.6466 9.94014" fill="white"/>
</mask>
<g mask="url(#mask0_0_117)">
<path d="M42.5932 0.140137H32.7266V19.8268H42.5932V0.140137Z" fill="url(#paint0_linear_0_117)"/>
</g>
<mask id="mask1_0_117" style="mask-type:luminance" maskUnits="userSpaceOnUse" x="18" y="4" width="11" height="20">
<path d="M18.7134 13.8999C18.7134 19.2666 23.01 23.6299 28.3534 23.7399C24.4367 22.2099 21.66 18.3999 21.66 13.9399C21.66 9.47989 24.5434 5.52322 28.58 4.05322H28.56C23.1234 4.05322 18.7134 8.45989 18.7134 13.8999Z" fill="white"/>
</mask>
<g mask="url(#mask1_0_117)">
<path d="M28.5835 4.05322H18.7168V23.7399H28.5835V4.05322Z" fill="url(#paint1_linear_0_117)"/>
</g>
<mask id="mask2_0_117" style="mask-type:luminance" maskUnits="userSpaceOnUse" x="18" y="0" width="21" height="10">
<path d="M18.8567 9.63667C20.3867 5.72 24.1967 2.94333 28.6534 2.94333C33.11 2.94333 37.07 5.82667 38.54 9.86667V9.84667C38.54 4.41 34.1334 0 28.6967 0C23.26 0 18.9667 4.29667 18.8567 9.63667Z" fill="white"/>
</mask>
<g mask="url(#mask2_0_117)">
<path d="M38.5434 0H18.8567V9.86667H38.5434V0Z" fill="url(#paint2_linear_0_117)"/>
</g>
<mask id="mask3_0_117" style="mask-type:luminance" maskUnits="userSpaceOnUse" x="22" y="14" width="21" height="10">
<path d="M22.7666 14.0333C22.7666 19.4699 27.1766 23.8799 32.6133 23.8799C38.0499 23.8799 42.3433 19.5833 42.4533 14.2399C40.9233 18.1566 37.1133 20.9366 32.6533 20.9366C28.1933 20.9366 24.2366 18.0533 22.7666 14.0166C22.7666 14.0233 22.7666 14.0299 22.7666 14.0366" fill="white"/>
</mask>
<g mask="url(#mask3_0_117)">
<path d="M42.4533 14.0132H22.7666V23.8798H42.4533V14.0132Z" fill="url(#paint3_linear_0_117)"/>
</g>
<path d="M63.4501 8.47671V23.4H68.5001V3.54004H63.4501V8.47671ZM89.8201 3.54004V23.4H94.8668V3.54004H89.8201ZM13.8567 8.47671L17.9167 3.54004H10.8567L9.08675 5.97337L7.26675 8.47337L6.04675 10.1534L5.21342 11.3034V3.54004H0.166748V18.25V23.4H5.21675V18.9834L8.27341 15.27L11.8034 23.4H18.3067L11.7634 11.0267L13.8601 8.47671H13.8567ZM49.9868 3.54004H44.7134V8.47671H49.9868V23.4H55.0334V8.47671H60.7568V3.54004H49.9868ZM76.6901 3.54004H71.1901V8.47671H76.6901V23.4H81.7401V8.47671H87.2367V3.54004H76.6901Z" fill="#0972BA"/>
<mask id="mask4_0_117" style="mask-type:luminance" maskUnits="userSpaceOnUse" x="32" y="0" width="11" height="20">
<path d="M39.6499 9.9368C39.6499 14.4835 36.7666 18.3568 32.7266 19.8235H32.7499C38.1866 19.8235 42.5966 15.4168 42.5966 9.98014C42.5966 4.54347 38.2966 0.250137 32.9532 0.140137C36.8699 1.67014 39.6466 5.48014 39.6466 9.94014" fill="white"/>
</mask>
<g mask="url(#mask4_0_117)">
<path d="M42.5932 0.140137H32.7266V19.8268H42.5932V0.140137Z" fill="url(#paint4_linear_0_117)"/>
</g>
<mask id="mask5_0_117" style="mask-type:luminance" maskUnits="userSpaceOnUse" x="18" y="4" width="11" height="20">
<path d="M18.7134 13.8999C18.7134 19.2666 23.01 23.6299 28.3534 23.7399C24.4367 22.2099 21.66 18.3999 21.66 13.9399C21.66 9.47989 24.5434 5.52322 28.58 4.05322H28.56C23.1234 4.05322 18.7134 8.45989 18.7134 13.8999Z" fill="white"/>
</mask>
<g mask="url(#mask5_0_117)">
<path d="M28.5835 4.05322H18.7168V23.7399H28.5835V4.05322Z" fill="url(#paint5_linear_0_117)"/>
</g>
<mask id="mask6_0_117" style="mask-type:luminance" maskUnits="userSpaceOnUse" x="18" y="0" width="21" height="10">
<path d="M18.8567 9.63667C20.3867 5.72 24.1967 2.94333 28.6534 2.94333C33.11 2.94333 37.07 5.82667 38.54 9.86667V9.84667C38.54 4.41 34.1334 0 28.6967 0C23.26 0 18.9667 4.29667 18.8567 9.63667Z" fill="white"/>
</mask>
<g mask="url(#mask6_0_117)">
<path d="M38.5434 0H18.8567V9.86667H38.5434V0Z" fill="url(#paint6_linear_0_117)"/>
</g>
<mask id="mask7_0_117" style="mask-type:luminance" maskUnits="userSpaceOnUse" x="22" y="14" width="21" height="10">
<path d="M22.7666 14.0333C22.7666 19.4699 27.1766 23.8799 32.6133 23.8799C38.0499 23.8799 42.3433 19.5833 42.4533 14.2399C40.9233 18.1566 37.1133 20.9366 32.6533 20.9366C28.1933 20.9366 24.2366 18.0533 22.7666 14.0166C22.7666 14.0233 22.7666 14.0299 22.7666 14.0366" fill="white"/>
</mask>
<g mask="url(#mask7_0_117)">
<path d="M42.4533 14.0132H22.7666V23.8798H42.4533V14.0132Z" fill="url(#paint7_linear_0_117)"/>
</g>
<path d="M63.4501 8.47671V23.4H68.5001V3.54004H63.4501V8.47671ZM89.8201 3.54004V23.4H94.8668V3.54004H89.8201ZM13.8567 8.47671L17.9167 3.54004H10.8567L9.08675 5.97337L7.26675 8.47337L6.04675 10.1534L5.21342 11.3034V3.54004H0.166748V18.25V23.4H5.21675V18.9834L8.27341 15.27L11.8034 23.4H18.3067L11.7634 11.0267L13.8601 8.47671H13.8567ZM49.9868 3.54004H44.7134V8.47671H49.9868V23.4H55.0334V8.47671H60.7568V3.54004H49.9868ZM76.6901 3.54004H71.1901V8.47671H76.6901V23.4H81.7401V8.47671H87.2367V3.54004H76.6901Z" fill="#025BA8"/>
<path d="M121.737 6.38658V4.78991H126.007V2.82324H128.67V4.78991H132.963V6.38658H121.737Z" fill="#333333"/>
<path d="M125.893 21.5334H136.293C136.936 21.5334 137.393 21.43 137.636 21.24C137.886 21.05 138.006 20.7467 138.006 20.34V14.8634L137.933 14.5867L137.65 14.52H124.576L124.296 14.5867L124.223 14.8634V20.34C124.223 20.74 124.236 21.0267 124.483 21.2267C124.74 21.4234 125.216 21.53 125.893 21.53V21.5334ZM126.876 16.1234H135.37V19.1667C135.37 19.43 135.313 19.6167 135.203 19.74C135.083 19.87 134.87 19.9367 134.566 19.9367H127.713C127.41 19.9367 127.196 19.88 127.07 19.76C126.943 19.64 126.88 19.45 126.88 19.1867V16.12L126.876 16.1234Z" fill="#333333"/>
<path d="M114.94 18.0466L113.667 19.1799C111.627 17.8999 109.727 15.7299 108.52 12.4566C107.38 15.8166 105.347 17.7833 103.65 19.1666L102.227 18.0433C105.603 15.1099 107.107 10.2066 107.107 6.24659V3.90326H109.793V6.14326C109.793 9.85326 111.027 14.7999 114.937 18.0466H114.94ZM119.163 21.7233H116.48V3.34326H119.163V21.7233Z" fill="#333333"/>
<path d="M156.693 16.4066H154.033V11.4533H150.97V9.9166H154.057V7.58326H150.95V6.0266H154.033V3.34326H156.693V16.4066Z" fill="#333333"/>
<path d="M176.74 14.0834H169.063V21.7034H166.423V14.0834H158.75V12.5H171.56C172.41 9.30671 172.07 5.54671 172.07 5.54671H160.953V3.96338H174.06C174.457 3.96338 174.7 4.15338 174.683 4.60671C174.663 5.06338 174.717 10.38 173.323 12.5H176.737V14.0834H176.74Z" fill="#333333"/>
<path d="M194.917 17.0065H192.433V15.7465H189.103V14.1532H192.433V12.9599C191.32 13.5599 186.18 13.5199 186.18 13.5199V16.4132H183.7V13.4999H178.21V11.8932H188.197C189.143 11.8932 191.117 11.9499 192.413 11.6532V3.35986H194.917V17.0065ZM190.353 7.1932C190.353 9.4832 187.78 10.7165 184.693 10.7165C181.607 10.7165 179.04 9.47986 179.04 7.1932C179.04 4.90653 181.587 3.5932 184.693 3.5932C187.8 3.5932 190.353 4.89653 190.353 7.1932ZM187.727 7.1932C187.727 6.1032 186.693 4.92986 184.693 4.92986C182.693 4.92986 181.68 6.03986 181.68 7.1932C181.68 8.34653 182.71 9.40653 184.693 9.40653C186.677 9.40653 187.727 8.29653 187.727 7.1932Z" fill="#333333"/>
<path d="M145.567 3.7832C142.773 3.7832 140.497 5.55654 140.497 8.69654C140.497 11.8365 142.8 13.5032 145.567 13.5032C148.333 13.5032 150.643 11.8232 150.643 8.69654C150.643 5.56987 148.36 3.7832 145.567 3.7832ZM145.567 11.9032C143.907 11.9032 143.05 10.3599 143.05 8.6732C143.05 6.98654 143.897 5.3632 145.567 5.3632C147.237 5.3632 148.097 7.05654 148.097 8.6732C148.097 10.2899 147.223 11.9032 145.567 11.9032Z" fill="#333333"/>
<path d="M127.3 4.95312C124.6 4.95312 122.393 6.43646 122.393 9.01979C122.393 11.6031 124.623 13.0165 127.3 13.0165C129.977 13.0165 132.21 11.6231 132.21 9.01979C132.21 6.41646 130.003 4.95312 127.3 4.95312ZM127.3 11.6631C125.78 11.6631 124.987 10.4098 124.987 9.02646C124.987 7.64312 125.767 6.35312 127.3 6.35312C128.833 6.35312 129.627 7.73312 129.627 9.02646C129.627 10.3198 128.823 11.6631 127.3 11.6631Z" fill="#333333"/>
<path d="M135.383 8.24988V3.37988H138.02V13.5199H135.383V9.82655H132.757V8.24988H135.383Z" fill="#333333"/>
<path d="M146.59 19.9365C146.287 19.9365 146.077 19.8832 145.953 19.7665C145.827 19.6465 145.76 19.4565 145.76 19.1965V14.8398H143.143V19.9765C143.143 21.0332 143.687 21.5398 144.823 21.5398H157.167V19.9398H146.593L146.59 19.9365Z" fill="#333333"/>
<path d="M183.873 19.9532C183.57 19.9532 183.357 19.8966 183.23 19.7766C183.097 19.6599 183.037 19.4666 183.037 19.2099V15.6299H180.4V19.8965C180.4 20.9932 181.007 21.5366 182.077 21.5366H195.203V19.9532H183.873Z" fill="#333333"/>
</g>
<defs>
<linearGradient id="paint0_linear_0_117" x1="37.5092" y1="19.6245" x2="37.5092" y2="-0.0358964" gradientUnits="userSpaceOnUse">
<stop stop-color="#0972BA"/>
<stop offset="0.19" stop-color="#0972BA"/>
<stop offset="1" stop-color="#7DD2F5"/>
</linearGradient>
<linearGradient id="paint1_linear_0_117" x1="23.464" y1="23.5341" x2="23.464" y2="3.87369" gradientUnits="userSpaceOnUse">
<stop stop-color="#7DD2F5"/>
<stop offset="0.87" stop-color="#0972BA"/>
<stop offset="1" stop-color="#0972BA"/>
</linearGradient>
<linearGradient id="paint2_linear_0_117" x1="19.0994" y1="4.70203" x2="38.7598" y2="4.70203" gradientUnits="userSpaceOnUse">
<stop stop-color="#7DD2F5"/>
<stop offset="0.87" stop-color="#0972BA"/>
<stop offset="1" stop-color="#0972BA"/>
</linearGradient>
<linearGradient id="paint3_linear_0_117" x1="22.9891" y1="18.7639" x2="42.6495" y2="18.7639" gradientUnits="userSpaceOnUse">
<stop stop-color="#0972BA"/>
<stop offset="0.12" stop-color="#0972BA"/>
<stop offset="1" stop-color="#7DD2F5"/>
</linearGradient>
<linearGradient id="paint4_linear_0_117" x1="37.5092" y1="19.6245" x2="37.5092" y2="-0.0358964" gradientUnits="userSpaceOnUse">
<stop stop-color="#0972BA"/>
<stop offset="0.19" stop-color="#0972BA"/>
<stop offset="1" stop-color="#7DD2F5"/>
</linearGradient>
<linearGradient id="paint5_linear_0_117" x1="23.464" y1="23.5341" x2="23.464" y2="3.87369" gradientUnits="userSpaceOnUse">
<stop stop-color="#7DD2F5"/>
<stop offset="0.87" stop-color="#0972BA"/>
<stop offset="1" stop-color="#0972BA"/>
</linearGradient>
<linearGradient id="paint6_linear_0_117" x1="19.0994" y1="4.70203" x2="38.7598" y2="4.70203" gradientUnits="userSpaceOnUse">
<stop stop-color="#7DD2F5"/>
<stop offset="0.87" stop-color="#0972BA"/>
<stop offset="1" stop-color="#0972BA"/>
</linearGradient>
<linearGradient id="paint7_linear_0_117" x1="22.9891" y1="18.7639" x2="42.6495" y2="18.7639" gradientUnits="userSpaceOnUse">
<stop stop-color="#0972BA"/>
<stop offset="0.12" stop-color="#0972BA"/>
<stop offset="1" stop-color="#7DD2F5"/>
</linearGradient>
<clipPath id="clip0_0_117">
<rect width="196" height="24" fill="white"/>
</clipPath>
</defs>
</svg>
