<svg width="109" height="47" viewBox="0 0 109 47" fill="none" xmlns="http://www.w3.org/2000/svg">
<g clip-path="url(#clip0_2033_46)">
<path d="M24.5 20.5C24.5 19.9477 24.9477 19.5 25.5 19.5H26.5C27.0523 19.5 27.5 19.9477 27.5 20.5V28.5C27.5 29.0523 27.0523 29.5 26.5 29.5H25.5C24.9477 29.5 24.5 29.0523 24.5 28.5V20.5Z" fill="black"/>
<path d="M29.5 18.5C29.5 17.9477 29.9477 17.5 30.5 17.5H31.5C32.0523 17.5 32.5 17.9477 32.5 18.5V28.5C32.5 29.0523 32.0523 29.5 31.5 29.5H30.5C29.9477 29.5 29.5 29.0523 29.5 28.5V18.5Z" fill="black"/>
<path d="M19.5 24C19.5 23.4477 19.9477 23 20.5 23H21.5C22.0523 23 22.5 23.4477 22.5 24V28.5C22.5 29.0523 22.0523 29.5 21.5 29.5H20.5C19.9477 29.5 19.5 29.0523 19.5 28.5V24Z" fill="black"/>
<path d="M14.5 26.5C14.5 25.9477 14.9477 25.5 15.5 25.5H16.5C17.0523 25.5 17.5 25.9477 17.5 26.5V28.5C17.5 29.0523 17.0523 29.5 16.5 29.5H15.5C14.9477 29.5 14.5 29.0523 14.5 28.5V26.5Z" fill="black"/>
</g>
<g clip-path="url(#clip1_2033_46)">
<path fill-rule="evenodd" clip-rule="evenodd" d="M49.0498 20.0875C51.5163 20.0876 53.8885 21.0551 55.6762 22.7898C55.8108 22.9238 56.0259 22.9221 56.1585 22.786L57.4453 21.4605C57.5124 21.3915 57.5498 21.298 57.5493 21.2008C57.5487 21.1035 57.5102 21.0105 57.4423 20.9423C52.7504 16.3526 45.3484 16.3526 40.6565 20.9423C40.5885 21.0105 40.55 21.1035 40.5493 21.2007C40.5487 21.2979 40.5861 21.3914 40.6531 21.4605L41.9403 22.786C42.0728 22.9223 42.2881 22.924 42.4226 22.7898C44.2105 21.0549 46.583 20.0875 49.0498 20.0875ZM49.0852 24.0894C50.4404 24.0893 51.7473 24.6035 52.7518 25.532C52.8877 25.6638 53.1017 25.6609 53.2342 25.5256L54.5194 24.2C54.5871 24.1304 54.6247 24.0361 54.6237 23.9381C54.6227 23.8401 54.5833 23.7466 54.5143 23.6784C51.4552 20.7739 46.7178 20.7739 43.6588 23.6784C43.5897 23.7466 43.5502 23.8401 43.5493 23.9382C43.5484 24.0362 43.5861 24.1305 43.6539 24.2L44.9388 25.5256C45.0713 25.6609 45.2853 25.6638 45.4212 25.532C46.4251 24.6041 47.7309 24.09 49.0852 24.0894ZM51.6988 26.6767C51.7008 26.775 51.6629 26.8698 51.5942 26.9386L49.371 29.2289C49.3058 29.2962 49.2169 29.334 49.1242 29.334C49.0315 29.334 48.9427 29.2962 48.8775 29.2289L46.6538 26.9386C46.5851 26.8697 46.5474 26.7749 46.5494 26.6766C46.5514 26.5783 46.5931 26.4853 46.6646 26.4194C48.0845 25.1935 50.164 25.1935 51.5838 26.4194C51.6552 26.4853 51.6969 26.5784 51.6988 26.6767Z" fill="black"/>
</g>
<g clip-path="url(#clip2_2033_46)">
<path opacity="0.35" d="M70.5493 17.5H87.5493C89.4823 17.5 91.0493 19.067 91.0493 21V26C91.0493 27.933 89.4823 29.5 87.5493 29.5H70.5493C68.6163 29.5 67.0493 27.933 67.0493 26V21C67.0493 19.067 68.6163 17.5 70.5493 17.5Z" stroke="black"/>
<path opacity="0.4" d="M92.5493 22V26.2203C93.3983 25.8629 93.9505 25.0314 93.9505 24.1102C93.9505 23.1889 93.3983 22.3574 92.5493 22Z" fill="black"/>
<path d="M68.5493 21C68.5493 19.8954 69.4447 19 70.5493 19H87.5493C88.6538 19 89.5493 19.8954 89.5493 21V26C89.5493 27.1046 88.6538 28 87.5493 28H70.5493C69.4447 28 68.5493 27.1046 68.5493 26V21Z" fill="black"/>
</g>
<defs>
<clipPath id="clip0_2033_46">
<rect width="18" height="12" fill="white" transform="translate(14.5 17.5)"/>
</clipPath>
<clipPath id="clip1_2033_46">
<rect width="18" height="12" fill="white" transform="translate(40.5 17.5)"/>
</clipPath>
<clipPath id="clip2_2033_46">
<rect width="28" height="13" fill="white" transform="translate(66.5 17)"/>
</clipPath>
</defs>
</svg>
