<svg width="240" height="32" viewBox="0 0 240 32" fill="none" xmlns="http://www.w3.org/2000/svg">
<g clip-path="url(#clip0_0_35)">
<mask id="mask0_0_35" style="mask-type:luminance" maskUnits="userSpaceOnUse" x="43" y="0" width="14" height="27">
<path d="M52.6444 13.2489C52.6444 19.3111 48.8 24.4756 43.4133 26.4311H43.4444C50.6933 26.4311 56.5733 20.5556 56.5733 13.3067C56.5733 6.05778 50.84 0.333335 43.7156 0.186668C48.9378 2.22667 52.64 7.30667 52.64 13.2533" fill="white"/>
</mask>
<g mask="url(#mask0_0_35)">
<path d="M56.5689 0.186668H43.4133V26.4356H56.5689V0.186668Z" fill="url(#paint0_linear_0_35)"/>
</g>
<mask id="mask1_0_35" style="mask-type:luminance" maskUnits="userSpaceOnUse" x="24" y="5" width="14" height="27">
<path d="M24.729 18.5333C24.729 25.6889 30.4579 31.5067 37.5823 31.6533C32.3601 29.6133 28.6579 24.5333 28.6579 18.5867C28.6579 12.64 32.5023 7.36444 37.8846 5.40444H37.8579C30.609 5.40444 24.729 11.28 24.729 18.5333Z" fill="white"/>
</mask>
<g mask="url(#mask1_0_35)">
<path d="M37.889 5.40444H24.7334V31.6533H37.889V5.40444Z" fill="url(#paint1_linear_0_35)"/>
</g>
<mask id="mask2_0_35" style="mask-type:luminance" maskUnits="userSpaceOnUse" x="24" y="0" width="28" height="14">
<path d="M24.9199 12.8489C26.9599 7.62667 32.0399 3.92444 37.9821 3.92444C43.9244 3.92444 49.2044 7.76889 51.1644 13.1556V13.1289C51.1644 5.88 45.2888 0 38.0399 0C30.791 0 25.0666 5.72889 24.9199 12.8489Z" fill="white"/>
</mask>
<g mask="url(#mask2_0_35)">
<path d="M51.1688 0H24.9199V13.1556H51.1688V0Z" fill="url(#paint2_linear_0_35)"/>
</g>
<mask id="mask3_0_35" style="mask-type:luminance" maskUnits="userSpaceOnUse" x="30" y="18" width="27" height="14">
<path d="M30.1333 18.7111C30.1333 25.96 36.0133 31.84 43.2622 31.84C50.5111 31.84 56.2355 26.1111 56.3822 18.9867C54.3422 24.2089 49.2622 27.9156 43.3155 27.9156C37.3689 27.9156 32.0933 24.0711 30.1333 18.6889C30.1333 18.6978 30.1333 18.7067 30.1333 18.7156" fill="white"/>
</mask>
<g mask="url(#mask3_0_35)">
<path d="M56.3822 18.6844H30.1333V31.84H56.3822V18.6844Z" fill="url(#paint3_linear_0_35)"/>
</g>
<path d="M84.3778 11.3022V31.2H91.1111V4.72H84.3778V11.3022ZM119.538 4.72V31.2H126.267V4.72H119.538ZM18.2533 11.3022L23.6667 4.72H14.2533L11.8933 7.96445L9.46667 11.2978L7.84 13.5378L6.72889 15.0711V4.72H0V24.3333V31.2H6.73333V25.3111L10.8089 20.36L15.5156 31.2H24.1867L15.4622 14.7022L18.2578 11.3022H18.2533ZM66.4267 4.72H59.3956V11.3022H66.4267V31.2H73.1556V11.3022H80.7867V4.72H66.4267ZM102.031 4.72H94.6978V11.3022H102.031V31.2H108.764V11.3022H116.093V4.72H102.031Z" fill="#0972BA"/>
<mask id="mask4_0_35" style="mask-type:luminance" maskUnits="userSpaceOnUse" x="43" y="0" width="14" height="27">
<path d="M52.6444 13.2489C52.6444 19.3111 48.8 24.4756 43.4133 26.4311H43.4444C50.6933 26.4311 56.5733 20.5556 56.5733 13.3067C56.5733 6.05778 50.84 0.333335 43.7156 0.186668C48.9378 2.22667 52.64 7.30667 52.64 13.2533" fill="white"/>
</mask>
<g mask="url(#mask4_0_35)">
<path d="M56.5689 0.186668H43.4133V26.4356H56.5689V0.186668Z" fill="url(#paint4_linear_0_35)"/>
</g>
<mask id="mask5_0_35" style="mask-type:luminance" maskUnits="userSpaceOnUse" x="24" y="5" width="14" height="27">
<path d="M24.729 18.5333C24.729 25.6889 30.4579 31.5067 37.5823 31.6533C32.3601 29.6133 28.6579 24.5333 28.6579 18.5867C28.6579 12.64 32.5023 7.36444 37.8846 5.40444H37.8579C30.609 5.40444 24.729 11.28 24.729 18.5333Z" fill="white"/>
</mask>
<g mask="url(#mask5_0_35)">
<path d="M37.889 5.40444H24.7334V31.6533H37.889V5.40444Z" fill="url(#paint5_linear_0_35)"/>
</g>
<mask id="mask6_0_35" style="mask-type:luminance" maskUnits="userSpaceOnUse" x="24" y="0" width="28" height="14">
<path d="M24.9199 12.8489C26.9599 7.62667 32.0399 3.92444 37.9821 3.92444C43.9244 3.92444 49.2044 7.76889 51.1644 13.1556V13.1289C51.1644 5.88 45.2888 0 38.0399 0C30.791 0 25.0666 5.72889 24.9199 12.8489Z" fill="white"/>
</mask>
<g mask="url(#mask6_0_35)">
<path d="M51.1688 0H24.9199V13.1556H51.1688V0Z" fill="url(#paint6_linear_0_35)"/>
</g>
<mask id="mask7_0_35" style="mask-type:luminance" maskUnits="userSpaceOnUse" x="30" y="18" width="27" height="14">
<path d="M30.1333 18.7111C30.1333 25.96 36.0133 31.84 43.2622 31.84C50.5111 31.84 56.2355 26.1111 56.3822 18.9867C54.3422 24.2089 49.2622 27.9156 43.3155 27.9156C37.3689 27.9156 32.0933 24.0711 30.1333 18.6889C30.1333 18.6978 30.1333 18.7067 30.1333 18.7156" fill="white"/>
</mask>
<g mask="url(#mask7_0_35)">
<path d="M56.3822 18.6844H30.1333V31.84H56.3822V18.6844Z" fill="url(#paint7_linear_0_35)"/>
</g>
<path d="M84.3778 11.3022V31.2H91.1111V4.72H84.3778V11.3022ZM119.538 4.72V31.2H126.267V4.72H119.538ZM18.2533 11.3022L23.6667 4.72H14.2533L11.8933 7.96445L9.46667 11.2978L7.84 13.5378L6.72889 15.0711V4.72H0V24.3333V31.2H6.73333V25.3111L10.8089 20.36L15.5156 31.2H24.1867L15.4622 14.7022L18.2578 11.3022H18.2533ZM66.4267 4.72H59.3956V11.3022H66.4267V31.2H73.1556V11.3022H80.7867V4.72H66.4267ZM102.031 4.72H94.6978V11.3022H102.031V31.2H108.764V11.3022H116.093V4.72H102.031Z" fill="#025BA8"/>
<path d="M240.102 26.4578C240.102 24.8444 239.302 22.9644 237.044 22.9644C234.987 22.9644 233.551 24.6089 233.551 26.9644C233.551 29.32 234.982 30.6978 237.191 30.6978C238.36 30.6978 239.173 30.44 239.649 30.2267L239.711 30.2L239.431 29.12L239.347 29.1556C238.915 29.3289 238.347 29.5067 237.369 29.5067C235.929 29.5067 235.053 28.6222 234.995 27.1511C235.178 27.1511 240.049 27.1644 240.049 27.1644L240.098 26.4578H240.102ZM235.018 26.0489C235.151 25.1156 235.72 24.0667 236.938 24.0667C237.427 24.0667 237.822 24.2178 238.115 24.52C238.604 25.0133 238.662 25.7467 238.667 26.0489H235.018Z" fill="#323232"/>
<path d="M175.005 24.1689C175.569 24.1689 176.067 24.28 176.493 24.5022L176.578 24.5467L176.925 23.3911L176.867 23.36C176.529 23.1778 175.836 22.96 175.005 22.96C172.667 22.96 171.036 24.5822 171.036 26.9022C171.036 29.2222 172.516 30.6933 174.72 30.6933C175.622 30.6933 176.405 30.4711 176.836 30.2667L176.893 30.24L176.636 29.0978L176.547 29.1378C176.169 29.3022 175.685 29.4756 174.965 29.4756C173.507 29.4756 172.529 28.4178 172.529 26.8444C172.529 25.5111 173.298 24.1689 175.009 24.1689H175.005Z" fill="#323232"/>
<path d="M181.978 23.1289C181.48 23.1289 181 23.2622 180.591 23.5156C180.253 23.6933 179.964 23.9822 179.738 24.3156V20.4489H178.262V30.6978H179.738V26.2489C179.738 26.0044 179.751 25.8178 179.822 25.6489C180.049 25.0178 180.653 24.3822 181.516 24.3822C182.836 24.3822 183.111 25.5111 183.111 26.4578V30.6978H184.587V26.3067C184.587 23.96 183.182 23.1289 181.978 23.1289Z" fill="#323232"/>
<path d="M217.756 21.3644L217.653 21.3956L216.311 21.8178V23.1289H215.187V24.2889H216.311V28.16C216.311 29.0756 216.485 29.7156 216.84 30.1156C217.182 30.4889 217.707 30.6978 218.32 30.6978C218.933 30.6978 219.32 30.5822 219.516 30.5156L219.573 30.4978L219.502 29.3333L219.405 29.3644C219.205 29.4267 218.996 29.4489 218.662 29.4489C218.027 29.4489 217.756 29.0533 217.756 28.12V24.2933H219.64V23.1333H217.756V21.3689V21.3644ZM232.845 24.2889V23.1289H230.96V21.3644L230.858 21.3956L229.516 21.8178V23.1289H228.391V24.2889H229.516V28.16C229.516 29.0756 229.689 29.7156 230.045 30.1156C230.387 30.4889 230.911 30.6978 231.525 30.6978C232.138 30.6978 232.525 30.5822 232.72 30.5156L232.778 30.4978L232.707 29.3333L232.609 29.3644C232.405 29.4267 232.2 29.4489 231.867 29.4489C231.231 29.4489 230.96 29.0533 230.96 28.12V24.2933H232.845V24.2889ZM227.187 23.1289H225.711V27.64C225.711 27.88 225.671 28.1067 225.6 28.2844C225.387 28.8222 224.822 29.4489 223.938 29.4489C222.916 29.4489 222.4 28.6978 222.4 27.2089V23.1333H220.925V27.4489C220.925 30.3867 222.729 30.7022 223.502 30.7022C224.893 30.7022 225.587 29.8844 225.862 29.4711C225.88 29.7378 225.929 30.5378 225.929 30.5378H227.253L227.191 28.4844V23.1378L227.187 23.1289Z" fill="#323232"/>
<path d="M213.982 23.2933H212.507V30.6978H213.982V23.2933Z" fill="#323232"/>
<path d="M191.249 20.4489H189.773V30.6978H191.249V20.4489Z" fill="#323232"/>
<path d="M204.067 26.1733C203.16 25.8267 202.756 25.5778 202.756 25.0044C202.756 24.4311 203.204 24.0933 203.876 24.0933C204.364 24.0933 204.849 24.2311 205.316 24.5022L205.4 24.5511L205.764 23.4578L205.711 23.4222C205.271 23.1333 204.591 22.96 203.902 22.96C202.409 22.96 201.324 23.8889 201.324 25.1644C201.324 26.0978 201.991 26.8133 203.307 27.2889C204.253 27.6444 204.587 27.9733 204.587 28.5467C204.587 29.1733 204.093 29.5467 203.271 29.5467C202.627 29.5467 201.951 29.28 201.56 29.0489L201.476 29L201.111 30.1422L201.164 30.1733C201.724 30.5022 202.48 30.6933 203.24 30.6933C204.924 30.6933 206.013 29.8044 206.013 28.4267C206.013 27.3689 205.409 26.6711 204.062 26.1689L204.067 26.1733Z" fill="#323232"/>
<path d="M197.004 23.1289C195.831 23.1289 195.036 23.7644 194.649 24.3689C194.636 24.1067 194.582 23.2933 194.582 23.2933H193.258L193.32 25.3333V30.6978H194.796V26.2489L194.88 25.6622C195.089 25.0178 195.698 24.3689 196.569 24.3689C197.96 24.3689 198.169 25.6711 198.169 26.4444V30.6978H199.644V26.2933C199.644 23.2844 197.444 23.1289 197.004 23.1289Z" fill="#323232"/>
<path d="M209.298 21.3644L209.196 21.3956L207.853 21.8178V23.1289H206.733V24.2889H207.853V28.16C207.853 29.0756 208.027 29.7156 208.382 30.1156C208.725 30.4889 209.249 30.6978 209.862 30.6978C210.476 30.6978 210.862 30.5822 211.053 30.5156L211.111 30.4978L211.045 29.3333L210.947 29.3644C210.742 29.4267 210.538 29.4489 210.205 29.4489C209.569 29.4489 209.298 29.0533 209.298 28.12V24.2933H211.182V23.1333H209.298V21.3689V21.3644Z" fill="#323232"/>
<path d="M213.213 22.2978H213.231C213.769 22.2978 214.164 21.9067 214.164 21.3644C214.164 20.8222 213.778 20.4444 213.244 20.4444C212.711 20.4444 212.311 20.84 212.311 21.3644C212.311 21.8889 212.698 22.2978 213.213 22.2978Z" fill="#323232"/>
<path d="M170.062 23.1289C169.195 23.1289 168.444 23.6978 168.067 24.5689C168.053 24.2533 168.013 23.2933 168.013 23.2933H166.702L166.764 25.6311L166.751 30.6933H168.227V26.7511L168.271 26.1333C168.449 25.16 169.111 24.5244 169.96 24.5244L170.467 24.5556L170.502 24.4756V23.1778L170.062 23.1244V23.1289Z" fill="#323232"/>
<path d="M137.28 30.5822C137.085 30.1911 136.831 29.1511 136.524 27.8311C136.262 26.7422 135.787 26.0844 135.093 25.7911C136.249 25.3511 136.947 24.4 136.947 23.2089C136.947 22.4133 136.649 21.6933 136.124 21.2356C135.476 20.6489 134.529 20.3778 133.138 20.3778C132.267 20.3778 131.307 20.4622 130.622 20.6044L130.56 20.6178V30.6978H132.022V26.3289H133.169C134.325 26.3733 134.836 26.8711 135.129 28.2267C135.427 29.6133 135.64 30.3867 135.796 30.6578L135.818 30.6978H137.338L137.28 30.5822ZM133.271 25.1822H132.018V21.6578C132.169 21.6222 132.542 21.5556 133.227 21.5556C134.671 21.5556 135.467 22.1911 135.467 23.3467C135.467 24.5022 134.604 25.1822 133.271 25.1822Z" fill="#323232"/>
<path d="M148.551 26.1733C147.645 25.8267 147.24 25.5778 147.24 25.0044C147.24 24.4311 147.689 24.0933 148.36 24.0933C148.849 24.0933 149.333 24.2311 149.8 24.5022L149.885 24.5511L150.249 23.4578L150.196 23.4222C149.756 23.1333 149.076 22.96 148.387 22.96C146.893 22.96 145.809 23.8889 145.809 25.1644C145.809 26.0978 146.476 26.8133 147.791 27.2889C148.738 27.6444 149.071 27.9733 149.071 28.5467C149.071 29.1733 148.582 29.5467 147.76 29.5467C147.116 29.5467 146.436 29.28 146.049 29.0489L145.965 29L145.6 30.1422L145.653 30.1733C146.213 30.5022 146.969 30.6933 147.729 30.6933C149.413 30.6933 150.502 29.8044 150.502 28.4267C150.502 27.3689 149.898 26.6711 148.551 26.1689V26.1733Z" fill="#323232"/>
<path d="M164.902 30.44C164.831 29.9867 164.795 29.4044 164.795 28.7156V26.0089C164.795 24.6222 164.302 22.9644 161.947 22.9644C161.062 22.9644 160.151 23.2044 159.511 23.6044L159.458 23.6356L159.809 24.6756L159.898 24.6178C160.382 24.2889 161.075 24.0933 161.755 24.0933C162.262 24.0889 162.653 24.2178 162.911 24.4756C163.182 24.7467 163.32 25.1556 163.32 25.6889V25.76C161.622 25.76 160.347 26.1333 159.64 26.84C159.191 27.2844 158.964 27.8533 158.964 28.5333C158.964 29.5733 159.68 30.6933 161.258 30.6933C162.315 30.6933 163.062 30.1822 163.458 29.6756C163.48 29.8667 163.569 30.5289 163.569 30.5289H164.911L164.898 30.44H164.902ZM161.591 29.5644C161.035 29.5644 160.444 29.2533 160.444 28.3867C160.444 28.0133 160.564 27.7022 160.809 27.4667C161.258 27.0311 162.111 26.8178 163.355 26.8311V28.0089L163.298 28.4044C163.115 28.9378 162.56 29.5644 161.591 29.5644Z" fill="#323232"/>
<path d="M158.062 26.4578C158.062 24.8444 157.262 22.9644 155.005 22.9644C152.947 22.9644 151.511 24.6089 151.511 26.9644C151.511 29.32 152.942 30.6978 155.151 30.6978C156.32 30.6978 157.133 30.44 157.609 30.2267L157.671 30.2L157.391 29.12L157.307 29.1556C156.876 29.3289 156.302 29.5067 155.329 29.5067C153.889 29.5067 153.013 28.6222 152.956 27.1511C153.133 27.1511 158.009 27.1644 158.009 27.1644L158.062 26.4578ZM152.978 26.0489C153.111 25.1156 153.68 24.0667 154.898 24.0667C155.387 24.0667 155.782 24.2178 156.076 24.52C156.565 25.0133 156.622 25.7467 156.627 26.0489H152.978Z" fill="#323232"/>
<path d="M144.64 26.4578C144.64 24.8444 143.84 22.9644 141.582 22.9644C139.524 22.9644 138.089 24.6089 138.089 26.9644C138.089 29.32 139.52 30.6978 141.733 30.6978C142.902 30.6978 143.716 30.44 144.191 30.2267L144.253 30.2L143.973 29.12L143.889 29.1556C143.458 29.3289 142.884 29.5067 141.911 29.5067C140.471 29.5067 139.596 28.6222 139.533 27.1511C139.711 27.1511 144.587 27.1644 144.587 27.1644L144.64 26.4578ZM141.476 24.0667C141.964 24.0667 142.36 24.2178 142.658 24.52C143.147 25.0133 143.204 25.7467 143.209 26.0489H139.56C139.693 25.1156 140.262 24.0667 141.48 24.0667H141.476Z" fill="#323232"/>
<path d="M144.049 10.9911C144.049 9.38222 143.249 7.49778 140.991 7.49778C138.933 7.49778 137.498 9.14222 137.498 11.4978C137.498 13.8533 138.924 15.2311 141.142 15.2311C142.311 15.2311 143.124 14.9733 143.6 14.76L143.662 14.7333L143.382 13.6533L143.298 13.6889C142.867 13.8622 142.298 14.04 141.324 14.04C139.884 14.04 139.009 13.1556 138.947 11.6844C139.129 11.6844 144 11.7022 144 11.7022L144.049 10.9956V10.9911ZM138.964 10.5822C139.098 9.64889 139.667 8.6 140.884 8.6C141.373 8.6 141.769 8.75111 142.067 9.05334C142.551 9.54667 142.613 10.28 142.618 10.5822H138.964Z" fill="#323232"/>
<path d="M163.72 7.66666C162.547 7.66666 161.751 8.30222 161.365 8.90666C161.347 8.64444 161.298 7.83111 161.298 7.83111H159.973L160.036 9.87111V15.2356H161.511V10.7867L161.596 10.2C161.804 9.55555 162.409 8.90666 163.285 8.90666C164.676 8.90666 164.884 10.2089 164.884 10.9822V15.24H166.36V10.8356C166.36 7.82666 164.16 7.67111 163.72 7.67111V7.66666Z" fill="#323232"/>
<path d="M130.56 4.98666V6.25333H133.631V15.2356H135.107V6.25333H138.191V4.98666H130.564H130.56Z" fill="#323232"/>
<path d="M148.089 10.7067C147.182 10.36 146.778 10.1111 146.778 9.53778C146.778 8.96445 147.227 8.63111 147.893 8.63111C148.382 8.63111 148.867 8.76889 149.338 9.04L149.422 9.08889L149.787 7.99556L149.738 7.96C149.293 7.67111 148.618 7.49778 147.929 7.49778C146.436 7.49778 145.351 8.42667 145.351 9.70222C145.351 10.6356 146.018 11.3511 147.333 11.8267C148.276 12.1822 148.613 12.5111 148.613 13.0844C148.613 13.7111 148.125 14.08 147.302 14.08C146.658 14.08 145.978 13.8133 145.591 13.5822L145.507 13.5289L145.142 14.6711L145.196 14.7022C145.756 15.0311 146.511 15.2222 147.271 15.2222C148.956 15.2222 150.045 14.3333 150.045 12.9556C150.045 11.8978 149.44 11.2 148.089 10.6978V10.7067Z" fill="#323232"/>
<path d="M157.236 6.83556H157.249C157.791 6.83556 158.182 6.44445 158.182 5.90222C158.182 5.36 157.796 4.98222 157.262 4.98222C156.729 4.98222 156.329 5.37778 156.329 5.90222C156.329 6.42667 156.716 6.83556 157.231 6.83556H157.236ZM156.529 15.2311H158.004V7.82667H156.529V15.2311Z" fill="#323232"/>
<path d="M155.205 8.82667V7.66667H153.32V5.90222L153.218 5.93333L151.876 6.35556V7.66667H150.751V8.82667H151.876V12.6978C151.876 13.6133 152.049 14.2533 152.405 14.6533C152.747 15.0267 153.271 15.2356 153.885 15.2356C154.498 15.2356 154.885 15.12 155.076 15.0489L155.133 15.0267L155.062 13.8622L154.965 13.8889C154.76 13.9511 154.556 13.9778 154.222 13.9778C153.587 13.9778 153.316 13.5822 153.316 12.6489V8.82222H155.2L155.205 8.82667Z" fill="#323232"/>
<path d="M187.471 14.5067C187.471 14.5067 186.529 13.4978 186.458 13.4222C187.067 12.68 187.476 11.6311 187.733 10.1156L187.747 10.0311H186.533L186.524 10.0933C186.356 11.1867 186.084 12.0044 185.711 12.6044C185.582 12.4578 183.684 10.2844 183.622 10.2133C184.973 9.53333 185.582 8.77778 185.582 7.77778C185.582 6.61333 184.733 5.79556 183.524 5.79556C181.987 5.79556 181.156 6.97333 181.156 8.08444C181.156 8.67556 181.422 9.32889 181.911 9.97333C180.751 10.6356 180.156 11.5289 180.156 12.6356C180.156 13.9244 181.129 15.2311 182.991 15.2311C184.022 15.2311 184.858 14.9111 185.613 14.24C185.671 14.2978 185.791 14.4267 185.791 14.4267L186.431 15.0844H188.013L187.471 14.5022V14.5067ZM183.204 14.2133H183.191C182.173 14.2133 181.436 13.48 181.436 12.4667C181.436 11.6089 182.013 11.0578 182.516 10.7333C182.596 10.8267 184.849 13.3467 184.947 13.4578C184.484 13.9378 183.876 14.2133 183.209 14.2133H183.204ZM183.444 6.74667H183.458C184.129 6.74667 184.427 7.29333 184.427 7.83555C184.427 8.54667 183.889 9.00444 183.022 9.50222C182.644 9.00889 182.391 8.55555 182.391 7.98222C182.391 7.36444 182.716 6.74667 183.44 6.74667H183.444Z" fill="#323232"/>
<path d="M174.676 7.85778H173.431C173.431 7.85778 173.405 8.55556 173.391 8.81778C173.08 8.33778 172.445 7.69334 171.173 7.69334C169.507 7.69334 167.818 9.03556 167.818 11.6044C167.818 13.7067 169.147 15.2311 170.982 15.2311C171.942 15.2311 172.76 14.8133 173.236 14.1289V14.7333C173.236 16.7689 172.009 17.1956 170.982 17.1956C170.213 17.1956 169.453 16.9867 168.898 16.6267L168.813 16.5689L168.431 17.7422L168.48 17.7733C169.045 18.1511 169.987 18.3867 170.933 18.3867C171.573 18.3867 172.773 18.2711 173.636 17.4978C174.369 16.8133 174.698 15.7689 174.698 14.1156V9.91111L174.76 7.86223H174.68L174.676 7.85778ZM171.369 14.0711C169.947 14.0711 169.307 12.8044 169.307 11.5467C169.307 9.94667 170.142 8.87111 171.382 8.87111C172.227 8.87111 172.889 9.37334 173.147 10.2222L173.218 10.7822V12.0844C173.218 12.3422 173.182 12.5822 173.116 12.76C172.867 13.5556 172.178 14.0711 171.365 14.0711H171.369Z" fill="#323232"/>
</g>
<defs>
<linearGradient id="paint0_linear_0_35" x1="49.7001" y1="26.2058" x2="49.7001" y2="-0.00804327" gradientUnits="userSpaceOnUse">
<stop stop-color="#0972BA"/>
<stop offset="0.19" stop-color="#0972BA"/>
<stop offset="1" stop-color="#7DD2F5"/>
</linearGradient>
<linearGradient id="paint1_linear_0_35" x1="31.068" y1="31.4189" x2="31.068" y2="5.20506" gradientUnits="userSpaceOnUse">
<stop stop-color="#7DD2F5"/>
<stop offset="0.87" stop-color="#0972BA"/>
<stop offset="1" stop-color="#0972BA"/>
</linearGradient>
<linearGradient id="paint2_linear_0_35" x1="25.204" y1="6.26938" x2="51.4178" y2="6.26938" gradientUnits="userSpaceOnUse">
<stop stop-color="#7DD2F5"/>
<stop offset="0.87" stop-color="#0972BA"/>
<stop offset="1" stop-color="#0972BA"/>
</linearGradient>
<linearGradient id="paint3_linear_0_35" x1="30.3044" y1="25.0188" x2="56.6132" y2="25.0188" gradientUnits="userSpaceOnUse">
<stop stop-color="#0972BA"/>
<stop offset="0.12" stop-color="#0972BA"/>
<stop offset="1" stop-color="#7DD2F5"/>
</linearGradient>
<linearGradient id="paint4_linear_0_35" x1="49.7001" y1="26.2058" x2="49.7001" y2="-0.00804327" gradientUnits="userSpaceOnUse">
<stop stop-color="#0972BA"/>
<stop offset="0.19" stop-color="#0972BA"/>
<stop offset="1" stop-color="#7DD2F5"/>
</linearGradient>
<linearGradient id="paint5_linear_0_35" x1="31.068" y1="31.4189" x2="31.068" y2="5.20506" gradientUnits="userSpaceOnUse">
<stop stop-color="#7DD2F5"/>
<stop offset="0.87" stop-color="#0972BA"/>
<stop offset="1" stop-color="#0972BA"/>
</linearGradient>
<linearGradient id="paint6_linear_0_35" x1="25.204" y1="6.26938" x2="51.4178" y2="6.26938" gradientUnits="userSpaceOnUse">
<stop stop-color="#7DD2F5"/>
<stop offset="0.87" stop-color="#0972BA"/>
<stop offset="1" stop-color="#0972BA"/>
</linearGradient>
<linearGradient id="paint7_linear_0_35" x1="30.3044" y1="25.0188" x2="56.6132" y2="25.0188" gradientUnits="userSpaceOnUse">
<stop stop-color="#0972BA"/>
<stop offset="0.12" stop-color="#0972BA"/>
<stop offset="1" stop-color="#7DD2F5"/>
</linearGradient>
<clipPath id="clip0_0_35">
<rect width="240" height="32" fill="white"/>
</clipPath>
</defs>
</svg>
