<svg width="109" height="47" viewBox="0 0 109 47" fill="none" xmlns="http://www.w3.org/2000/svg">
<g clip-path="url(#clip0_2033_43)">
<path d="M38.2886 29.5V20.2109H38.1558L35.3511 22.1953V20.2969L38.2964 18.2266H40.3042V29.5H38.2886ZM45.8748 29.5V20.2109H45.742L42.9373 22.1953V20.2969L45.8826 18.2266H47.8904V29.5H45.8748ZM52.1563 22.1953C51.4454 22.1953 50.9142 21.6484 50.9142 20.9609C50.9142 20.2656 51.4454 19.7266 52.1563 19.7266C52.8751 19.7266 53.3985 20.2656 53.3985 20.9609C53.3985 21.6484 52.8751 22.1953 52.1563 22.1953ZM52.1563 27.9922C51.4454 27.9922 50.9142 27.4531 50.9142 26.7578C50.9142 26.0625 51.4454 25.5234 52.1563 25.5234C52.8751 25.5234 53.3985 26.0625 53.3985 26.7578C53.3985 27.4531 52.8751 27.9922 52.1563 27.9922ZM59.6645 29.7266C57.1957 29.7266 55.5785 28.3828 55.4301 26.4531L55.4223 26.3594H57.3442L57.352 26.4453C57.4614 27.3984 58.3442 28.0781 59.6645 28.0781C60.9692 28.0781 61.8364 27.3516 61.8364 26.3047V26.2891C61.8364 25.1016 60.9614 24.4453 59.516 24.4453H58.1879V22.9453H59.477C60.7192 22.9453 61.5473 22.2422 61.5473 21.2578V21.2422C61.5473 20.2109 60.852 19.6016 59.6489 19.6016C58.4614 19.6016 57.641 20.2344 57.5395 21.2422L57.5317 21.3203H55.6567L55.6645 21.2344C55.8364 19.2813 57.3754 18 59.6489 18C61.9692 18 63.477 19.2109 63.477 20.9766V20.9922C63.477 22.3906 62.4692 23.3203 61.1176 23.6016V23.6406C62.7739 23.7969 63.8754 24.7812 63.8754 26.3438V26.3594C63.8754 28.3438 62.1645 29.7266 59.6645 29.7266ZM69.821 29.7812C67.1414 29.7812 65.532 27.5078 65.532 23.8672V23.8516C65.532 20.2109 67.1414 17.9453 69.821 17.9453C72.5007 17.9453 74.1257 20.2109 74.1257 23.8516V23.8672C74.1257 27.5078 72.5007 29.7812 69.821 29.7812ZM69.821 28.1484C71.2585 28.1484 72.0945 26.5391 72.0945 23.8672V23.8516C72.0945 21.1797 71.2585 19.5859 69.821 19.5859C68.3835 19.5859 67.5632 21.1797 67.5632 23.8516V23.8672C67.5632 26.5391 68.3835 28.1484 69.821 28.1484Z" fill="black"/>
</g>
<defs>
<clipPath id="clip0_2033_43">
<rect width="40" height="13" fill="white" transform="translate(34.5 17)"/>
</clipPath>
</defs>
</svg>
