<svg width="36" height="36" viewBox="0 0 36 36" fill="none" xmlns="http://www.w3.org/2000/svg">
<path d="M20.4089 30.711V27.183H1.06055V30.711C1.06055 34.4329 2.56593 35.0609 4.9764 35.0609H24.0847C21.8774 35.0609 20.4089 33.6571 20.4089 30.711Z" fill="#D4E4FC" stroke="#002D54" stroke-width="1.5" stroke-linejoin="round"/>
<path d="M28.065 27.8665V30.711C28.065 33.9619 26.1163 35.0609 24.0938 35.0609" stroke="#002D54" stroke-width="1.5" stroke-linejoin="round"/>
<path d="M28.1659 14.6158H34.3075V10.7369C34.3075 7.66143 33.3747 5.81433 30.17 5.81433H17M4.85547 26.5665V18.6517V12.5001" stroke="#002D54" stroke-width="1.5" stroke-linejoin="round"/>
<path d="M28.0651 27.8665V12.2862C28.0651 10.6422 27.7243 5.86243 30.9475 5.86243" stroke="#002D54" stroke-width="1.5" stroke-linejoin="round"/>
<line x1="15.1572" y1="13.7762" x2="23.9993" y2="13.7762" stroke="#002D54" stroke-width="1.5"/>
<line x1="7.57813" y1="18.829" x2="23.9992" y2="18.829" stroke="#002D54" stroke-width="1.5"/>
<line x1="7.57812" y1="23.8817" x2="23.9992" y2="23.8817" stroke="#002D54" stroke-width="1.5"/>
<path d="M12.6968 10.6306V15.0041L10.0515 13.8311L7.40625 15.0041V10.6306" fill="#D4E4FC"/>
<path d="M12.6968 10.6306V15.0041L10.0515 13.8311L7.40625 15.0041V10.6306" stroke="#002D54" stroke-width="1.5" stroke-linejoin="round"/>
<path d="M10.0518 11.2608C7.64357 11.2608 5.68457 9.30176 5.68457 6.89356C5.68457 4.48537 7.64357 2.52637 10.0518 2.52637C12.46 2.52637 14.419 4.48537 14.419 6.89356C14.419 9.30176 12.46 11.2608 10.0518 11.2608Z" fill="#025BA8" stroke="#002D54" stroke-width="1.5" stroke-linejoin="round"/>
</svg>
