<svg width="36" height="36" viewBox="0 0 36 36" fill="none" xmlns="http://www.w3.org/2000/svg">
<path d="M20.4089 30.711V27.183H1.06055V30.711C1.06055 34.4329 2.56593 35.0609 4.9764 35.0609H24.0847C21.8774 35.0609 20.4089 33.6571 20.4089 30.711Z" fill="#D4E4FC" stroke="#002D54" stroke-width="1.5" stroke-linejoin="round"/>
<path d="M28 30.0001C28 33.251 26.1163 35.0609 24.0938 35.0609" stroke="#002D54" stroke-width="1.5" stroke-linejoin="round"/>
<path d="M28.1659 14.6158H34.3075V10.7369C34.3075 7.66144 33.3747 5.81434 30.17 5.81434H9.37163C6.77645 5.81434 4.85547 7.4952 4.85547 10.7369V26.5665" fill="white"/>
<path d="M28.1659 14.6158H34.3075V10.7369C34.3075 7.66144 33.3747 5.81434 30.17 5.81434H9.37163C6.77645 5.81434 4.85547 7.4952 4.85547 10.7369V26.5665" stroke="#002D54" stroke-width="1.5" stroke-linejoin="round"/>
<path d="M28.0651 16.0001V12.2862C28.0651 10.6422 27.7243 5.86243 30.9475 5.86243" stroke="#002D54" stroke-width="1.5" stroke-linejoin="round"/>
<line x1="15.1572" y1="13.7762" x2="23.9993" y2="13.7762" stroke="#002D54" stroke-width="1.5"/>
<line x1="7.57813" y1="18.829" x2="23.9992" y2="18.829" stroke="#002D54" stroke-width="1.5"/>
<line x1="8" y1="24.2501" x2="21" y2="24.2501" stroke="#002D54" stroke-width="1.5"/>
<path d="M12.6968 10.6306V15.0041L10.0515 13.8311L7.40625 15.0041V10.6306" fill="#D4E4FC"/>
<path d="M12.6968 10.6306V15.0041L10.0515 13.8311L7.40625 15.0041V10.6306" stroke="#002D54" stroke-width="1.5" stroke-linejoin="round"/>
<path d="M10.0518 11.2608C7.64357 11.2608 5.68457 9.30176 5.68457 6.89356C5.68457 4.48537 7.64357 2.52637 10.0518 2.52637C12.46 2.52637 14.419 4.48537 14.419 6.89356C14.419 9.30176 12.46 11.2608 10.0518 11.2608Z" fill="#025BA8" stroke="#002D54" stroke-width="1.5" stroke-linejoin="round"/>
<g clip-path="url(#clip0_2_5834)">
<path d="M32.1155 20.0775C33.7827 21.7447 33.7827 24.4483 32.1155 26.1155C30.9222 27.3088 28.2186 28.2566 26.0775 26.1155C24.4104 24.4483 24.4104 21.7447 26.0775 20.0775C27.7447 18.4104 30.4483 18.4104 32.1155 20.0775ZM35.2501 29.2501L32.2996 26.2996L35.2501 29.2501Z" fill="white"/>
<path d="M35.2501 29.2501L32.2996 26.2996M32.1155 20.0775C33.7827 21.7447 33.7827 24.4483 32.1155 26.1155C30.9222 27.3088 28.2186 28.2566 26.0775 26.1155C24.4104 24.4483 24.4104 21.7447 26.0775 20.0775C27.7447 18.4104 30.4483 18.4104 32.1155 20.0775Z" stroke="#002D54" stroke-width="2" stroke-linejoin="round"/>
<circle cx="29.0727" cy="23.1818" r="2.45455" fill="#025BA8"/>
</g>
<defs>
<clipPath id="clip0_2_5834">
<rect width="13" height="13" fill="white" transform="translate(23 17)"/>
</clipPath>
</defs>
</svg>
